<?xml version="1.0" encoding="utf-8" ?>
<svg xmlns="http://www.w3.org/2000/svg" xmlns:xlink="http://www.w3.org/1999/xlink" width="877" height="862">
	<path fill="#F7DE83" transform="translate(-91.4603 -87.3176)" d="M482.767 329.257L488.966 321.329C495.963 327.182 501.716 332.541 510.611 335.598L510.148 336.395L507.748 339.875L508.165 340.5C507.943 341.084 507.748 341.627 507.436 342.169C497.459 339.301 490.324 336.705 482.767 329.257Z"/>
	<path fill="#1c1d1d" transform="translate(-91.4603 -87.3176)" d="M545.477 398.223C548.721 398.155 552.246 397.821 555.456 398.247L567.247 398.466L567.315 399.309C567.375 400.22 567.22 400.771 566.991 401.636C566.58 403.187 567.083 404.239 567.54 405.714C568.124 407.602 567.442 410.17 569.248 411.336L570.399 411.841L575.151 412.047C576.22 413.329 575.229 423.156 575.161 425.446L514.555 425.138L513.999 412.041L527.048 411.752C528.332 411.451 528.723 411.567 529.66 410.582C530.156 408.754 529.825 407.335 529.48 405.5C528.696 404.511 528.057 403.624 527.464 402.5C527.588 400.81 528.108 400.012 529.076 398.644C533.917 397.654 540.451 398.277 545.477 398.223ZM545.477 398.223C540.451 398.277 533.917 397.654 529.076 398.644C528.108 400.012 527.588 400.81 527.464 402.5C528.057 403.624 528.696 404.511 529.48 405.5C529.825 407.335 530.156 408.754 529.66 410.582C528.723 411.567 528.332 411.451 527.048 411.752L570.399 411.841L569.248 411.336C567.442 410.17 568.124 407.602 567.54 405.714C567.083 404.239 566.58 403.187 566.991 401.636C567.22 400.771 567.375 400.22 567.315 399.309L567.247 398.466L555.456 398.247C552.246 397.821 548.721 398.155 545.477 398.223Z"/>
	<path fill="#f5f1f1" fill-opacity="0.76862746" transform="translate(-91.4603 -87.3176)" d="M545.477 398.223C548.721 398.155 552.246 397.821 555.456 398.247L567.247 398.466L567.315 399.309C567.375 400.22 567.22 400.771 566.991 401.636C566.58 403.187 567.083 404.239 567.54 405.714C568.124 407.602 567.442 410.17 569.248 411.336L570.399 411.841L527.048 411.752C528.332 411.451 528.723 411.567 529.66 410.582C530.156 408.754 529.825 407.335 529.48 405.5C528.696 404.511 528.057 403.624 527.464 402.5C527.588 400.81 528.108 400.012 529.076 398.644C533.917 397.654 540.451 398.277 545.477 398.223Z"/>
	<path fill="#BD982F" transform="translate(-91.4603 -87.3176)" d="M527.456 498.63C527.303 483.76 531.19 471.027 538.541 458.236C536.784 465.795 533.677 477.796 537.975 484.986C540.934 489.934 547.147 490.931 552.292 492.046C559.736 510.608 576.354 525.433 594.704 533.09C599.832 535.229 604.484 536.058 610 535.875C611.101 535.077 611.845 534.364 612.71 533.314L618.509 547.548C616.412 549.574 614.115 551.548 612.301 553.833L570.058 527.25L540.807 509.372C536.002 506.096 531.301 503.035 527.456 498.63Z"/>
	<path fill="#624703" transform="translate(-91.4603 -87.3176)" d="M527.456 498.63C524.527 494.18 522.027 488.605 521.522 483.25C520.127 468.455 529.743 451.728 538.724 440.612L576.946 440.299C578.639 443.549 579.679 446.934 580.202 450.567L580.293 450.876C577.68 450.923 575.689 451.932 573.283 452.747C567.544 454.691 562.591 456.4 558.242 460.831C552.318 466.869 550.363 473.991 549.895 482.244C550.37 485.662 551.11 488.802 552.292 492.046C547.147 490.931 540.934 489.934 537.975 484.986C533.677 477.796 536.784 465.795 538.541 458.236C531.19 471.027 527.303 483.76 527.456 498.63Z"/>
	<path fill="#BD982F" transform="translate(-91.4603 -87.3176)" d="M549.895 482.244C548.689 475.884 549.151 469.257 550.665 462.972C551.819 458.182 553.222 453.942 555.336 449.479L580.202 450.567L580.293 450.876C577.68 450.923 575.689 451.932 573.283 452.747C567.544 454.691 562.591 456.4 558.242 460.831C552.318 466.869 550.363 473.991 549.895 482.244Z"/>
	<path fill="#624703" transform="translate(-91.4603 -87.3176)" d="M482.767 329.257C490.324 336.705 497.459 339.301 507.436 342.169C507.886 346.292 512.236 352.295 514.201 356.036C519.479 366.085 524.053 376.157 527.492 387C528.548 390.327 529.993 393.985 530.131 397.5C529.303 398.334 529.786 398.002 528.667 398.476L510.898 398.049C504.289 382.144 492.611 367.44 478.433 357.595C472.98 353.808 466.885 351.01 460.905 348.177L471.906 339.941C475.813 336.769 479.277 332.879 482.767 329.257Z"/>
	<path fill="#BD982F" transform="translate(-91.4603 -87.3176)" d="M539.814 321.564C543.114 329.313 550.942 335.722 557.541 340.704C554.3 342.714 553.356 345.416 552.625 348.996L552.628 349.097L547.206 378.611C546.312 385.063 545.394 391.705 545.477 398.223C540.451 398.277 533.917 397.654 529.076 398.644L528.667 398.476C529.786 398.002 529.303 398.334 530.131 397.5C529.993 393.985 528.548 390.327 527.492 387C524.053 376.157 519.479 366.085 514.201 356.036C512.236 352.295 507.886 346.292 507.436 342.169C507.748 341.627 507.943 341.084 508.165 340.5L507.748 339.875L510.148 336.395L510.611 335.598L514.746 335.989C524.846 336.31 533.012 327.971 539.814 321.564Z"/>
	<path fill="#F7DE83" transform="translate(-91.4603 -87.3176)" d="M549.895 482.244C550.363 473.991 552.318 466.869 558.242 460.831C562.591 456.4 567.544 454.691 573.283 452.747C575.689 451.932 577.68 450.923 580.293 450.876L591.688 480.414C594.853 485.407 595.931 491.887 598.13 497.374C602.161 507.435 607.192 516.933 610.263 527.407L612.71 533.314C611.845 534.364 611.101 535.077 610 535.875C604.484 536.058 599.832 535.229 594.704 533.09C576.354 525.433 559.736 510.608 552.292 492.046C551.11 488.802 550.37 485.662 549.895 482.244ZM610.263 527.407C607.192 516.933 602.161 507.435 598.13 497.374C595.931 491.887 594.853 485.407 591.688 480.414C587.551 480.367 584.346 480.511 580.698 478.25C578.854 477.107 577.057 475.572 575.029 474.799C573.837 479.258 573.205 483.278 575.537 487.558C578.029 492.132 582.482 495.105 585.005 499.994C586.014 501.948 587.194 504.03 587.655 506.194C588.209 508.793 588.111 511.66 588.929 514.196C591.088 520.897 603.161 525.577 609.342 527.172L610.263 527.407Z"/>
	<path fill="#F7DE83" transform="translate(-91.4603 -87.3176)" d="M539.814 321.564L544.835 315.519C550.458 322.219 555.693 327.308 563.115 331.934C565.855 333.642 569.003 335.567 572.25 335.975C579.565 336.895 584.905 333.557 590.775 329.777L599.947 322.02C602.511 324.123 604.671 326.645 606.896 329.093C609.601 332.135 612.165 335.51 615.118 338.294C618.924 341.882 623.479 344.851 627.709 347.923C612.409 355.572 598.699 364.914 588.611 379.076C586.126 382.566 583.979 386.319 582.068 390.149C581.331 391.627 579.312 396.801 577.986 397.648C577.745 397.802 576.401 397.882 576.098 397.924C573.095 398.348 570.276 398.537 567.247 398.466L555.456 398.247C552.246 397.821 548.721 398.155 545.477 398.223C545.394 391.705 546.312 385.063 547.206 378.611L552.628 349.097L552.625 348.996C553.356 345.416 554.3 342.714 557.541 340.704C550.942 335.722 543.114 329.313 539.814 321.564Z"/>
	<path fill="#FDEDA6" transform="translate(-91.4603 -87.3176)" d="M590.775 329.777L599.947 322.02C602.511 324.123 604.671 326.645 606.896 329.093C604.271 333.589 598.726 335.54 593.87 336.801C593.182 336.979 592.778 336.961 592.107 336.75C590.731 335.129 590.321 334.37 590.504 332.14L590.775 329.777Z"/>
	<path fill="#A6881E" transform="translate(-91.4603 -87.3176)" d="M552.628 349.097L552.625 348.996C553.356 345.416 554.3 342.714 557.541 340.704C561.339 342.811 564.937 344.456 569.076 345.775L568.746 346.223C566.471 349.427 565.297 353.153 563.402 356.568C558.578 355.649 556.688 350.971 552.628 349.097Z"/>
	<path fill="#624703" transform="translate(-91.4603 -87.3176)" d="M552.628 349.097C556.688 350.971 558.578 355.649 563.402 356.568C558.631 369.469 555.619 384.481 555.456 398.247C552.246 397.821 548.721 398.155 545.477 398.223C545.394 391.705 546.312 385.063 547.206 378.611L552.628 349.097Z"/>
	<path fill="rgba(201,196,196,0.158)" transform="translate(-91.4603 -87.3176)" d="M519.457 869.843L520.88 869.761C520.44 869.287 520.1 868.973 519.534 868.639L519.05 868.372C521.944 867.484 527.137 868.388 530.25 868.428C539.49 868.548 548.865 868.086 558.077 868.769L558.58 868.924C561.805 869.821 565.269 869.543 568.589 869.542L586.5 869.647L609.854 871.418L642.885 872.187L671.213 874.52C687.149 875.756 754.566 879.31 763.524 889.25C763.619 889.973 763.878 890.489 763.447 891.14C759.22 897.515 725.888 901.75 717.697 902.752C679.836 907.385 641.829 909.179 603.75 910.681L479 910.524L444.818 909.519L412.272 906.805L391.754 905.449L370.714 902.817C365.726 902.252 360.695 902.288 355.713 901.616C348.938 900.701 342.037 899.103 335.34 897.71C330.419 896.686 323.106 895.297 319.25 892.009C318.635 891.484 318.583 891.337 318.194 890.75C318.273 889.472 318.134 889.024 319.25 888.191C320.364 887.36 322.486 886.794 323.805 886.284C336.626 881.332 350.442 880.796 363.949 879.375L379.885 876.936L413.284 874.541L437.871 872.38L475.46 871.472L490.357 870.542C494.412 870.425 498.451 870.938 502.5 870.874L519.457 869.843Z"/>
	<path fill="#624703" transform="translate(-91.4603 -87.3176)" d="M481.885 566.659L501.18 531.973C507.676 537.655 514.169 543.082 521.267 547.999C528.609 553.086 536.466 557.5 544.093 562.149L555.967 569.219C558.337 570.596 561.121 571.972 563.175 573.783L584.469 586.315L584.984 586.668C589.186 589.499 593.786 591.653 598.051 594.389C613.692 604.426 631.135 617.664 639.906 634.407C642.886 640.097 644.639 646.275 645.894 652.542C647.521 660.662 647.06 669.2 646.128 677.36C645.479 683.503 643.223 690.169 640.503 695.708C633.4 710.171 621.349 720.098 606.162 725.165C596.422 728.415 586.265 729.67 576.086 730.539L540.654 731.983C528.777 732.013 517.037 731.793 505.196 730.799C493.318 729.803 481.083 728.065 470.34 722.572C457.797 716.159 447.016 704.147 442.8 690.617C435.291 666.518 443.503 642.695 453.543 620.75L472.943 582.632L481.885 566.659ZM588.583 703.521L590.089 703.336C611.065 700.697 632.64 694.796 646.128 677.36C647.06 669.2 647.521 660.662 645.894 652.542C644.639 646.275 642.886 640.097 639.906 634.407C631.135 617.664 613.692 604.426 598.051 594.389C593.786 591.653 589.186 589.499 584.984 586.668L584.469 586.315L584.258 586.855C583.562 588.694 583.283 590.205 583.206 592.164C580.194 590.557 576.9 588.719 573.582 587.86C571.501 589.648 569.879 597.096 568.927 600.053L568.459 599.619C558.63 590.692 546.392 585.311 536.212 577.047C531.559 581.574 527.017 586.14 523.33 591.514C514.465 604.438 509.728 621.04 509.519 636.633C509.281 654.357 515.236 670.602 527.743 683.331C543.458 699.323 563.352 703.392 585 703.546L588.583 703.521Z"/>
	<path fill="#BD982F" transform="translate(-91.4603 -87.3176)" d="M588.583 703.521C568.897 707.725 545.577 709.793 526.987 700.743C511.172 693.045 498.147 678.006 492.457 661.423C482.441 632.234 489.538 605.193 502.98 578.591C505.829 572.952 509.539 567.752 512.248 562.092L512.488 561.576L529.617 573.068C531.611 574.344 534.411 576.514 536.75 576.899C538.522 576.518 539.318 576.132 540.75 575.02C539.991 572.823 533.316 569.173 531.23 567.504C528.81 565.569 526.63 563.534 524.473 561.32C527.431 561.526 532.207 564.955 534.958 566.25L565.775 580.605L565.768 579.808C564.589 578.635 563.212 578.001 561.75 577.255L561.587 576.503C562.284 576.807 562.91 577.111 563.559 577.512L564.125 577.875C564.484 577.206 564.596 576.733 564.755 576C564.268 575.519 563.939 575.235 563.301 574.95L562.789 574.743L563.175 573.783L584.469 586.315L584.258 586.855C583.562 588.694 583.283 590.205 583.206 592.164C580.194 590.557 576.9 588.719 573.582 587.86C571.501 589.648 569.879 597.096 568.927 600.053L568.459 599.619C558.63 590.692 546.392 585.311 536.212 577.047C531.559 581.574 527.017 586.14 523.33 591.514C514.465 604.438 509.728 621.04 509.519 636.633C509.281 654.357 515.236 670.602 527.743 683.331C543.458 699.323 563.352 703.392 585 703.546L588.583 703.521Z"/>
	<path fill="#F7DE83" transform="translate(-91.4603 -87.3176)" d="M588.583 703.521L585 703.546C563.352 703.392 543.458 699.323 527.743 683.331C515.236 670.602 509.281 654.357 509.519 636.633C509.728 621.04 514.465 604.438 523.33 591.514C527.017 586.14 531.559 581.574 536.212 577.047C546.392 585.311 558.63 590.692 568.459 599.619L568.927 600.053C569.879 597.096 571.501 589.648 573.582 587.86C576.9 588.719 580.194 590.557 583.206 592.164C583.283 590.205 583.562 588.694 584.258 586.855L584.469 586.315L584.984 586.668C589.186 589.499 593.786 591.653 598.051 594.389C613.692 604.426 631.135 617.664 639.906 634.407C642.886 640.097 644.639 646.275 645.894 652.542C647.521 660.662 647.06 669.2 646.128 677.36C632.64 694.796 611.065 700.697 590.089 703.336L588.583 703.521ZM596.33 620.985C596.982 619.977 597.328 618.914 597.75 617.796C599.36 616.822 600.351 616.278 602.25 616.204C603.965 617.194 605.179 618.012 607.25 617.663L608.201 617.434C605.714 608.346 599.694 602 592.037 596.798C590.104 595.485 587.459 594.195 586 592.393L584.072 592.75C583.928 595.905 583.794 599.353 584.641 602.42C586.522 609.236 592.799 614.877 596.33 620.985ZM577.756 631.31C577.906 634.458 577.44 639.049 578.419 641.969C579.464 645.086 581.977 647.63 584.355 649.796C586.305 651.571 588.84 652.632 591.472 652.75C592.02 649.878 591.728 646.975 591.588 644.071L590.25 644.496C589.788 643.191 589.369 641.827 588.69 640.617C588.218 639.774 587.77 639.021 587.483 638.086C586.677 635.465 587.053 632.792 588.373 630.406C588.856 629.532 589.112 628.985 589.188 627.969L589.237 627C590.106 626.237 591.403 626.236 592.533 626.021L592.661 625.827L588.083 625.145L587.709 625.144C584.554 625.055 581.375 624.827 578.25 625.369C577.557 627.148 577.792 629.4 577.756 631.31ZM596.33 620.985L597.797 625.631L588.083 625.145L592.661 625.827L592.533 626.021L591.576 626.766C591.874 628.163 592.156 628.845 593.5 629.546C594.187 629.905 594.507 629.937 595.25 630.16L595.793 630.335C597.556 630.885 598.458 630.648 600.221 630.146C601.446 629.798 602.29 629.972 603.355 630.666C604.593 631.473 605.698 632.293 607.008 632.998C607.738 634.28 607.883 635.048 608.018 636.477L608.688 635.66C609.826 634.122 609.889 632.386 609.617 630.547C609.39 629.015 609.723 626.49 609.005 625.25L609.145 626.866C609.194 627.866 609.163 629.175 608.5 629.938C607.426 627.705 608.686 626.364 608.985 624.25C609.27 622.23 608.742 619.372 608.201 617.434L607.25 617.663C605.179 618.012 603.965 617.194 602.25 616.204C600.351 616.278 599.36 616.822 597.75 617.796C597.328 618.914 596.982 619.977 596.33 620.985ZM591.588 644.071C591.632 642.674 592.193 639.168 591.781 638.008C591.249 636.512 590.711 636.743 590.871 635C591.735 634.488 591.315 634.47 592.125 635.16C593.906 636.676 598.5 635.105 600.75 636.11C600.818 636.14 601.919 637.201 602.006 637.25C602.581 637.571 604.569 637.865 605.25 637.891C606.754 637.949 607.002 637.451 608.018 636.477C607.883 635.048 607.738 634.28 607.008 632.998C605.698 632.293 604.593 631.473 603.355 630.666C602.29 629.972 601.446 629.798 600.221 630.146C598.458 630.648 597.556 630.885 595.793 630.335L595.25 630.16C594.507 629.937 594.187 629.905 593.5 629.546C592.156 628.845 591.874 628.163 591.576 626.766L592.533 626.021C591.403 626.236 590.106 626.237 589.237 627L589.188 627.969C589.112 628.985 588.856 629.532 588.373 630.406C587.053 632.792 586.677 635.465 587.483 638.086C587.77 639.021 588.218 639.774 588.69 640.617C589.369 641.827 589.788 643.191 590.25 644.496L591.588 644.071ZM597.614 657.379L598.026 656.058C600.599 655.554 603.162 655.127 605.75 655.669L606.453 656.999C607.469 654.032 607.268 650.547 605.904 647.726C605.384 646.648 604.756 644.888 603.71 644.298C602.256 643.479 601.208 642.714 600.025 641.555C599.059 640.608 597.943 639.816 596.865 639.002C596.451 643.195 595.309 647.098 596.287 651.25L597.614 657.379ZM597.614 657.379C598.412 659.952 598.862 661.564 601.25 662.981C603.954 662.053 605.134 659.428 606.453 656.999L605.75 655.669C603.162 655.127 600.599 655.554 598.026 656.058L597.614 657.379Z"/>
	<path fill="#E0E0E0" fill-opacity="0.40000001" transform="translate(-91.4603 -87.3176)" d="M597.614 657.379L596.287 651.25C595.309 647.098 596.451 643.195 596.865 639.002C597.943 639.816 599.059 640.608 600.025 641.555C601.208 642.714 602.256 643.479 603.71 644.298C604.756 644.888 605.384 646.648 605.904 647.726C607.268 650.547 607.469 654.032 606.453 656.999L605.75 655.669C603.162 655.127 600.599 655.554 598.026 656.058L597.614 657.379Z"/>
	<path fill="#E0E0E0" fill-opacity="0.51764709" transform="translate(-91.4603 -87.3176)" d="M591.588 644.071L590.25 644.496C589.788 643.191 589.369 641.827 588.69 640.617C588.218 639.774 587.77 639.021 587.483 638.086C586.677 635.465 587.053 632.792 588.373 630.406C588.856 629.532 589.112 628.985 589.188 627.969L589.237 627C590.106 626.237 591.403 626.236 592.533 626.021L591.576 626.766C591.874 628.163 592.156 628.845 593.5 629.546C594.187 629.905 594.507 629.937 595.25 630.16L595.793 630.335C597.556 630.885 598.458 630.648 600.221 630.146C601.446 629.798 602.29 629.972 603.355 630.666C604.593 631.473 605.698 632.293 607.008 632.998C607.738 634.28 607.883 635.048 608.018 636.477C607.002 637.451 606.754 637.949 605.25 637.891C604.569 637.865 602.581 637.571 602.006 637.25C601.919 637.201 600.818 636.14 600.75 636.11C598.5 635.105 593.906 636.676 592.125 635.16C591.315 634.47 591.735 634.488 590.871 635C590.711 636.743 591.249 636.512 591.781 638.008C592.193 639.168 591.632 642.674 591.588 644.071Z"/>
	<path fill="#E0E0E0" fill-opacity="0.57647061" transform="translate(-91.4603 -87.3176)" d="M596.33 620.985C596.982 619.977 597.328 618.914 597.75 617.796C599.36 616.822 600.351 616.278 602.25 616.204C603.965 617.194 605.179 618.012 607.25 617.663L608.201 617.434C608.742 619.372 609.27 622.23 608.985 624.25C608.686 626.364 607.426 627.705 608.5 629.938C609.163 629.175 609.194 627.866 609.145 626.866L609.005 625.25C609.723 626.49 609.39 629.015 609.617 630.547C609.889 632.386 609.826 634.122 608.688 635.66L608.018 636.477C607.883 635.048 607.738 634.28 607.008 632.998C605.698 632.293 604.593 631.473 603.355 630.666C602.29 629.972 601.446 629.798 600.221 630.146C598.458 630.648 597.556 630.885 595.793 630.335L595.25 630.16C594.507 629.937 594.187 629.905 593.5 629.546C592.156 628.845 591.874 628.163 591.576 626.766L592.533 626.021L592.661 625.827L588.083 625.145L597.797 625.631L596.33 620.985Z"/>
	<path fill="#E0E0E0" fill-opacity="0.42745098" transform="translate(-91.4603 -87.3176)" d="M577.756 631.31C577.792 629.4 577.557 627.148 578.25 625.369C581.375 624.827 584.554 625.055 587.709 625.144L588.083 625.145L592.661 625.827L592.533 626.021C591.403 626.236 590.106 626.237 589.237 627L589.188 627.969C589.112 628.985 588.856 629.532 588.373 630.406C587.053 632.792 586.677 635.465 587.483 638.086C587.77 639.021 588.218 639.774 588.69 640.617C589.369 641.827 589.788 643.191 590.25 644.496L591.588 644.071C591.728 646.975 592.02 649.878 591.472 652.75C588.84 652.632 586.305 651.571 584.355 649.796C581.977 647.63 579.464 645.086 578.419 641.969C577.44 639.049 577.906 634.458 577.756 631.31ZM577.756 631.31C578.908 630.587 580.003 630.069 581.25 629.543C582.236 630.017 583.025 630.432 584.123 630.577L584.474 628.883C583.737 628.623 583.245 628.35 582.625 627.875C583.735 626.648 583.564 627.865 584.753 627.685C585.43 627.583 587.242 626.342 587.886 625.991L587.709 625.144C584.554 625.055 581.375 624.827 578.25 625.369C577.557 627.148 577.792 629.4 577.756 631.31Z"/>
	<path fill="#E0E0E0" fill-opacity="0.3882353" transform="translate(-91.4603 -87.3176)" d="M577.756 631.31C577.792 629.4 577.557 627.148 578.25 625.369C581.375 624.827 584.554 625.055 587.709 625.144L587.886 625.991C587.242 626.342 585.43 627.583 584.753 627.685C583.564 627.865 583.735 626.648 582.625 627.875C583.245 628.35 583.737 628.623 584.474 628.883L584.123 630.577C583.025 630.432 582.236 630.017 581.25 629.543C580.003 630.069 578.908 630.587 577.756 631.31Z"/>
	<path fill="#1c1d1d" transform="translate(-91.4603 -87.3176)" d="M519.457 869.843C519.034 869.477 518.222 868.557 517.75 868.366C516.442 867.837 513.615 867.797 512.171 867.662L500.516 866.493L477.735 863.56C465.75 861.899 453.779 859.417 442.102 856.255C401.878 845.364 364.317 825.275 335.097 795.28C306.347 765.767 286.195 729.073 280.606 687.989C278.437 672.047 278.447 656.101 278.607 640.05L403.778 639.966L402.596 665.596C402.159 690.205 408.593 714.836 426.116 732.919C431.939 738.927 438.179 744.337 445.393 748.646C458.311 756.364 471.813 760.184 486.5 762.639C510.475 766.646 533.959 766.482 558.145 766.829L558.077 868.769C548.865 868.086 539.49 868.548 530.25 868.428C527.137 868.388 521.944 867.484 519.05 868.372L519.534 868.639C520.1 868.973 520.44 869.287 520.88 869.761L519.457 869.843Z"/>
	<path fill="#1c1d1d" transform="translate(-91.4603 -87.3176)" d="M576.946 440.299C597.737 443.347 618.059 449.51 638 456.004C687.258 472.046 737.294 492.53 769.378 535.387C776.151 544.434 782.347 553.914 787.276 564.102C803.751 598.157 808.982 638.6 803.546 675.919C800.711 695.384 795.697 714.705 787.865 732.789C773.214 766.617 748.878 795.987 719.335 817.872C690.286 839.392 657.43 852.849 622.111 860.12C614.664 861.654 607.071 863.334 599.489 863.978L599.328 763.232C628.605 756.972 652.747 743.905 669.214 718.219C684.438 694.472 688.188 661.846 681.927 634.634C676.613 611.541 662.027 591.05 643.877 576.149C633.836 567.905 622.972 561.156 612.301 553.833C614.115 551.548 616.412 549.574 618.509 547.548L612.71 533.314L610.263 527.407C607.192 516.933 602.161 507.435 598.13 497.374C595.931 491.887 594.853 485.407 591.688 480.414L580.293 450.876L580.202 450.567C579.679 446.934 578.639 443.549 576.946 440.299Z"/>
	<path fill="#1c1d1d" transform="translate(-91.4603 -87.3176)" d="M481.885 566.659C467.425 552.788 446.723 545.783 428.424 538.577C389.192 523.126 350.627 507.085 321.336 475.543C291.919 443.866 278.888 402.955 280.624 360.192C282.75 307.829 304.862 260.306 343.48 224.75C402.121 170.76 484.004 155.086 561.5 158.594C629.704 161.682 700.276 183.618 747.372 235.328C779.663 270.782 798.736 313.732 796.466 362.206L667.338 362.353C667.373 341.577 666.764 323.08 655.058 305.078C641.121 283.645 619.204 271.447 594.561 266.363C554.435 258.086 482.886 257.345 448.098 280.57C428.746 293.489 414.057 313.043 409.417 336.047C405.118 357.364 408.676 379.343 420.89 397.463C432.709 414.997 451.689 426.605 471.597 432.871C479.818 435.458 488.361 437.071 496.804 438.749C488.133 449.638 482.176 463.458 481.568 477.509C481.162 486.887 481.538 496.218 484.402 505.235C487.667 515.513 493.979 524.135 501.18 531.973L481.885 566.659Z"/>
</svg>
