<?xml version="1.0" encoding="utf-8" ?>
<svg xmlns="http://www.w3.org/2000/svg" xmlns:xlink="http://www.w3.org/1999/xlink" width="1024" height="1024">
	<path fill="#010714" d="M494.847 129.726C496.646 129.612 498.443 129.529 500.245 129.482C573.575 127.55 644.685 149.122 703.477 193.214C717.422 203.673 730.12 215.413 742.754 227.377C723.463 227.796 703.579 227.081 684.195 227.083C654.039 205.212 617.799 185.352 581.181 177.128C530.951 163.189 476.258 166.732 426.48 180.443C419.471 182.374 412.542 185.038 405.812 187.781C399.807 190.228 393.694 193.195 387.256 194.274C378.131 195.803 368.709 194.75 359.501 194.694C342.982 194.595 326.194 194.703 309.688 195.36C320.23 187.267 331.896 180.49 343.467 173.997C391.733 146.912 439.819 134.025 494.847 129.726Z"/>
	<path fill="#010714" d="M809.135 326.318C810.401 328.496 811.364 330.779 812.301 333.113C842.399 408.073 838.149 495.703 806.784 569.535C775.329 643.58 717.79 701.713 646.444 738.005C634.962 743.846 623.053 748.83 611.119 753.659C607.374 755.177 603.271 756.226 599.415 757.471C606.66 738.486 618.135 721.282 625.473 702.335C634.387 697.268 643.699 693.069 652.501 687.721C691.391 664.095 725.051 632.188 749.244 593.514C790.176 528.08 802.277 451.379 785.018 376.369C791.234 360.623 800.583 340.943 809.135 326.318Z"/>
	<path fill="#010714" d="M217.145 317.786C222.003 322.68 237.33 358.329 241.48 367.172C239.424 376.985 236.846 386.624 235.103 396.515C228.689 432.922 228.997 469.782 237.264 505.877C254.316 580.342 300.04 641.169 362.799 683.819C370.661 689.161 378.726 694.504 387.129 698.963C393.736 702.468 401.035 705.337 407.324 709.344C407.456 709.428 407.587 709.515 407.718 709.601C415.996 725.986 423.772 742.721 431.3 759.462C427.738 758.193 424.095 757.106 420.495 755.947C396.334 748.043 373.947 737.757 352.3 724.377C276.711 677.66 219.718 603.512 199.397 516.531C186.778 462.522 189.6 406.641 204.188 353.364C207.36 341.782 210.78 328.034 217.145 317.786Z"/>
	<path fill="#010714" d="M361.296 212.745C376.203 212.165 392.75 211.489 406.943 216.66C419.472 221.224 430.381 229.113 437.945 240.162C445.268 250.86 449.586 263.508 454.717 275.345L474.143 319.308L526.538 436.809C539.187 465.444 551.313 494.313 564.535 522.694L534.76 585.27C529.938 595.357 524.438 605.326 520.212 615.665C518.565 618.817 517.138 622.128 515.622 625.347C507.684 606.559 498.632 588.234 489.994 569.758L450.31 484.322L325.129 212.999C337.155 212.623 349.26 212.82 361.296 212.745Z"/>
	<path fill="#010714" d="M186.572 212.205C197.508 212.026 208.479 212.314 219.425 212.198C239.735 211.984 263.287 209.307 282.663 216.253C295.885 220.993 308.695 229.833 316.546 241.637C320.431 247.478 323.089 254.335 325.945 260.721L336.174 283.25L374.627 367.854L452.317 538.685C472.925 583.916 493.383 629.254 514.662 674.173C527.368 651.283 536.909 626.236 547.424 602.264C559.342 575.093 572.117 548.289 584.541 521.348C568.968 483.435 551.966 446.045 535.627 408.454C519.853 372.165 504.658 335.343 487.565 299.663C489.323 284.775 496.889 270.739 508.139 260.855C517.483 252.646 528.704 247.427 540.983 245.533C555.131 243.351 570.346 244.622 584.657 244.664L658.856 244.767L775.698 244.65C795.915 244.636 816.594 243.712 836.747 244.964C832.116 255.845 826.183 266.437 820.844 277.013L798.417 322.045L668.224 322.084L632.702 322.032C624.324 321.977 615.805 321.592 607.45 322.224C600.853 322.723 594.217 323.971 587.995 326.237C587.297 326.549 586.6 326.865 585.911 327.196C567.089 336.234 562.894 353.548 556.392 371.699L544.551 405.193L686.062 405.21C708.428 405.215 730.958 404.635 753.301 405.571C748.875 419.185 740.424 433.737 734.222 446.827C717.588 481.936 700.256 516.717 683.184 551.615L513.799 893.281C509.579 886.662 506.447 878.488 502.913 871.413L475.366 815.024L396.04 649.686L260.7 365.487L213.414 267.805C204.412 249.286 195.162 230.924 186.572 212.205Z"/>
</svg>
