<?xml version="1.0" standalone="no"?>
<!DOCTYPE svg PUBLIC "-//W3C//DTD SVG 20010904//EN"
 "http://www.w3.org/TR/2001/REC-SVG-20010904/DTD/svg10.dtd">
<svg version="1.0" xmlns="http://www.w3.org/2000/svg"
 width="1024.000000pt" height="1024.000000pt" viewBox="0 0 1024.000000 1024.000000"
 preserveAspectRatio="xMidYMid meet">
<metadata>
Created by potrace 1.14, written by Peter Selinger 2001-2017
</metadata>
<g transform="translate(0.000000,1024.000000) scale(0.100000,-0.100000)"
fill="#000000" stroke="none">
<path d="M0 5120 l0 -5120 5120 0 5120 0 0 5120 0 5120 -5120 0 -5120 0 0
-5120z m5515 3855 c627 -80 1194 -326 1700 -741 104 -84 335 -309 335 -325 0
-5 -129 -9 -304 -9 l-304 0 -59 44 c-551 405 -1066 588 -1700 603 -414 10
-759 -47 -1139 -189 l-169 -63 -420 -2 -420 -3 30 25 c134 113 537 336 786
436 320 128 740 223 1079 243 126 7 466 -4 585 -19z m-2587 -942 c63 -7 39 32
232 -383 75 -162 433 -918 794 -1680 362 -762 773 -1628 913 -1925 141 -297
259 -544 263 -548 4 -4 100 171 214 390 197 380 736 1446 736 1458 0 3 -59 5
-130 5 l-130 0 -92 193 c-50 105 -136 279 -189 385 l-98 192 1034 0 1034 0
-33 -72 c-18 -40 -77 -161 -131 -268 -298 -594 -1503 -3050 -1652 -3365 -96
-203 -263 -552 -371 -773 l-196 -404 -27 54 c-15 30 -531 1114 -1147 2409
-1473 3097 -1725 3624 -1908 3998 -85 173 -154 318 -154 322 0 5 170 10 378
12 207 1 429 3 492 5 63 1 139 -1 168 -5z m662 -13 c118 -5 255 -16 303 -25
356 -64 676 -296 878 -636 23 -38 44 -69 48 -68 3 0 29 30 56 66 115 150 323
289 545 364 179 60 160 59 1583 59 713 0 1297 -3 1297 -6 0 -4 -104 -210 -232
-459 l-231 -452 -961 0 c-864 -1 -967 -2 -1024 -17 -294 -77 -505 -300 -577
-606 -20 -86 -19 -270 1 -367 24 -115 52 -182 204 -485 77 -152 140 -283 140
-290 1 -21 -464 -938 -472 -930 -3 4 -103 212 -221 462 -118 250 -419 887
-670 1415 -250 528 -529 1120 -620 1315 -91 195 -197 420 -236 499 -39 79 -71
150 -71 157 0 8 10 14 23 14 12 -1 119 -5 237 -10z m-1359 -982 c29 -57 87
-180 129 -274 l78 -171 -24 -83 c-124 -427 -135 -967 -30 -1425 155 -672 617
-1316 1235 -1720 104 -69 287 -165 418 -222 l72 -31 89 -179 c128 -257 176
-362 169 -369 -10 -10 -285 74 -432 132 -307 122 -596 294 -875 523 -1034 847
-1441 2206 -1050 3501 58 193 147 420 165 420 3 0 28 -46 56 -102z m5908 -51
c116 -300 181 -556 216 -861 19 -164 22 -521 6 -681 -57 -559 -231 -1056 -528
-1504 -383 -577 -876 -977 -1559 -1264 -138 -58 -382 -142 -390 -134 -5 5 107
250 205 445 l69 137 118 54 c216 97 397 206 574 345 486 383 841 933 989 1532
60 241 83 443 82 714 0 266 -33 523 -96 759 l-14 54 132 263 c99 199 135 260
144 252 7 -5 30 -55 52 -111z"/>
</g>
</svg>
