<?xml version="1.0" encoding="UTF-8"?>
<!-- This file is generated by npm run build:icons -->
<svg xmlns="http://www.w3.org/2000/svg" xmlns:xlink="http://www.w3.org/1999/xlink" width="0" height="0">
<defs>
<symbol viewBox="0 0 24 24" fill="none" stroke="currentColor" stroke-width="2" stroke-linecap="round" stroke-linejoin="round" class="icon icon-tabler icons-tabler-outline icon-tabler-activity" id="activity"><path stroke="none" d="M0 0h24v24H0z" fill="none"></path><path d="M3 12h4l3 8l4 -16l3 8h4" ></path></symbol>
<symbol viewBox="0 0 24 24" fill="currentColor" class="icon icon-tabler icons-tabler-filled icon-tabler-alert-hexagon" id="alert-hexagon"><path stroke="none" d="M0 0h24v24H0z" fill="none"></path><path d="M10.425 1.414a3.33 3.33 0 0 1 3.026 -.097l.19 .097l6.775 3.995l.096 .063l.092 .077l.107 .075a3.224 3.224 0 0 1 1.266 2.188l.018 .202l.005 .204v7.284c0 1.106 -.57 2.129 -1.454 2.693l-.17 .1l-6.803 4.302c-.918 .504 -2.019 .535 -3.004 .068l-.196 -.1l-6.695 -4.237a3.225 3.225 0 0 1 -1.671 -2.619l-.007 -.207v-7.285c0 -1.106 .57 -2.128 1.476 -2.705l6.95 -4.098zm1.585 13.586l-.127 .007a1 1 0 0 0 0 1.986l.117 .007l.127 -.007a1 1 0 0 0 0 -1.986l-.117 -.007zm-.01 -8a1 1 0 0 0 -.993 .883l-.007 .117v4l.007 .117a1 1 0 0 0 1.986 0l.007 -.117v-4l-.007 -.117a1 1 0 0 0 -.993 -.883z" ></path></symbol>
<symbol viewBox="0 0 24 24" fill="none" stroke="currentColor" stroke-width="2" stroke-linecap="round" stroke-linejoin="round" class="icon icon-tabler icons-tabler-outline icon-tabler-alert-triangle" id="alert-triangle"><path stroke="none" d="M0 0h24v24H0z" fill="none"></path><path d="M12 9v4" ></path><path d="M10.363 3.591l-8.106 13.534a1.914 1.914 0 0 0 1.636 2.871h16.214a1.914 1.914 0 0 0 1.636 -2.87l-8.106 -13.536a1.914 1.914 0 0 0 -3.274 0z" ></path><path d="M12 16h.01" ></path></symbol>
<symbol viewBox="0 0 15 15" fill="none" id="arrow-down">
  <path 
    fill-rule="evenodd"
    clip-rule="evenodd"
    d="M7.5 2C7.77614 2 8 2.22386 8 2.5L8 11.2929L11.1464 8.14645C11.3417 7.95118 11.6583 7.95118 11.8536 8.14645C12.0488 8.34171 12.0488 8.65829 11.8536 8.85355L7.85355 12.8536C7.75979 12.9473 7.63261 13 7.5 13C7.36739 13 7.24021 12.9473 7.14645 12.8536L3.14645 8.85355C2.95118 8.65829 2.95118 8.34171 3.14645 8.14645C3.34171 7.95118 3.65829 7.95118 3.85355 8.14645L7 11.2929L7 2.5C7 2.22386 7.22386 2 7.5 2Z"
    fill="currentColor"
  ></path>
</symbol>
<symbol viewBox="0 0 15 15" fill="none" id="arrow-left">
  <path     fill-rule="evenodd"
    clip-rule="evenodd"
    d="M6.85355 3.14645C7.04882 3.34171 7.04882 3.65829 6.85355 3.85355L3.70711 7H12.5C12.7761 7 13 7.22386 13 7.5C13 7.77614 12.7761 8 12.5 8H3.70711L6.85355 11.1464C7.04882 11.3417 7.04882 11.6583 6.85355 11.8536C6.65829 12.0488 6.34171 12.0488 6.14645 11.8536L2.14645 7.85355C1.95118 7.65829 1.95118 7.34171 2.14645 7.14645L6.14645 3.14645C6.34171 2.95118 6.65829 2.95118 6.85355 3.14645Z"
    fill="currentColor"
  ></path>
</symbol>
<symbol viewBox="0 0 15 15" fill="none" id="arrow-right">
  <path     fill-rule="evenodd"
    clip-rule="evenodd"
    d="M8.14645 3.14645C8.34171 2.95118 8.65829 2.95118 8.85355 3.14645L12.8536 7.14645C13.0488 7.34171 13.0488 7.65829 12.8536 7.85355L8.85355 11.8536C8.65829 12.0488 8.34171 12.0488 8.14645 11.8536C7.95118 11.6583 7.95118 11.3417 8.14645 11.1464L11.2929 8H2.5C2.22386 8 2 7.77614 2 7.5C2 7.22386 2.22386 7 2.5 7H11.2929L8.14645 3.85355C7.95118 3.65829 7.95118 3.34171 8.14645 3.14645Z"
    fill="currentColor"
  ></path>
</symbol>
<symbol viewBox="0 0 24 24" fill="none" stroke="currentColor" stroke-width="2" stroke-linecap="round" stroke-linejoin="round" class="lucide lucide-arrow-up-down" id="arrow-up-down"><path d="m21 16-4 4-4-4"></path><path d="M17 20V4"></path><path d="m3 8 4-4 4 4"></path><path d="M7 4v16"></path></symbol>
<symbol viewBox="0 0 15 15" fill="none" id="arrow-up">
  <path 
    fill-rule="evenodd"
    clip-rule="evenodd"
    d="M7.14645 2.14645C7.34171 1.95118 7.65829 1.95118 7.85355 2.14645L11.8536 6.14645C12.0488 6.34171 12.0488 6.65829 11.8536 6.85355C11.6583 7.04882 11.3417 7.04882 11.1464 6.85355L8 3.70711L8 12.5C8 12.7761 7.77614 13 7.5 13C7.22386 13 7 12.7761 7 12.5L7 3.70711L3.85355 6.85355C3.65829 7.04882 3.34171 7.04882 3.14645 6.85355C2.95118 6.65829 2.95118 6.34171 3.14645 6.14645L7.14645 2.14645Z"
    fill="currentColor"
  ></path>
</symbol>
<symbol class="icon icon-tabler icon-tabler-arrows-maximize" viewBox="0 0 24 24" stroke-width="2" stroke="currentColor" fill="none" stroke-linecap="round" stroke-linejoin="round" id="arrows-maximize"><path stroke="none" d="M0 0h24v24H0z" fill="none"></path><path d="M16 4l4 0l0 4" ></path><path d="M14 10l6 -6" ></path><path d="M8 20l-4 0l0 -4" ></path><path d="M4 20l6 -6" ></path><path d="M16 20l4 0l0 -4" ></path><path d="M14 14l6 6" ></path><path d="M8 4l-4 0l0 4" ></path><path d="M4 4l6 6" ></path></symbol>
<symbol class="icon icon-tabler icon-tabler-arrows-minimize" viewBox="0 0 24 24" stroke-width="2" stroke="currentColor" fill="none" stroke-linecap="round" stroke-linejoin="round" id="arrows-minimize"><path stroke="none" d="M0 0h24v24H0z" fill="none"></path><path d="M5 9l4 0l0 -4" ></path><path d="M3 3l6 6" ></path><path d="M5 15l4 0l0 4" ></path><path d="M3 21l6 -6" ></path><path d="M19 9l-4 0l0 -4" ></path><path d="M15 9l6 -6" ></path><path d="M19 15l-4 0l0 4" ></path><path d="M15 15l6 6" ></path></symbol>
<symbol viewBox="0 0 15 15" fill="none" id="avatar">
  <path     fill-rule="evenodd"
    clip-rule="evenodd"
    d="M0.877014 7.49988C0.877014 3.84219 3.84216 0.877045 7.49985 0.877045C11.1575 0.877045 14.1227 3.84219 14.1227 7.49988C14.1227 11.1575 11.1575 14.1227 7.49985 14.1227C3.84216 14.1227 0.877014 11.1575 0.877014 7.49988ZM7.49985 1.82704C4.36683 1.82704 1.82701 4.36686 1.82701 7.49988C1.82701 8.97196 2.38774 10.3131 3.30727 11.3213C4.19074 9.94119 5.73818 9.02499 7.50023 9.02499C9.26206 9.02499 10.8093 9.94097 11.6929 11.3208C12.6121 10.3127 13.1727 8.97172 13.1727 7.49988C13.1727 4.36686 10.6328 1.82704 7.49985 1.82704ZM10.9818 11.9787C10.2839 10.7795 8.9857 9.97499 7.50023 9.97499C6.01458 9.97499 4.71624 10.7797 4.01845 11.9791C4.97952 12.7272 6.18765 13.1727 7.49985 13.1727C8.81227 13.1727 10.0206 12.727 10.9818 11.9787ZM5.14999 6.50487C5.14999 5.207 6.20212 4.15487 7.49999 4.15487C8.79786 4.15487 9.84999 5.207 9.84999 6.50487C9.84999 7.80274 8.79786 8.85487 7.49999 8.85487C6.20212 8.85487 5.14999 7.80274 5.14999 6.50487ZM7.49999 5.10487C6.72679 5.10487 6.09999 5.73167 6.09999 6.50487C6.09999 7.27807 6.72679 7.90487 7.49999 7.90487C8.27319 7.90487 8.89999 7.27807 8.89999 6.50487C8.89999 5.73167 8.27319 5.10487 7.49999 5.10487Z"
    fill="currentColor"
  ></path>
</symbol>
<symbol viewBox="0 0 24 24" fill="none" stroke="currentColor" stroke-width="2" stroke-linecap="round" stroke-linejoin="round" class="lucide lucide-banknote" id="banknote"><rect width="20" height="12" x="2" y="6" rx="2"></rect><circle cx="12" cy="12" r="2"></circle><path d="M6 12h.01M18 12h.01"></path></symbol>
<symbol viewBox="0 0 24 24" fill="none" stroke="currentColor" stroke-width="2" stroke-linecap="round" stroke-linejoin="round" class="lucide lucide-bookmark" id="bookmark"><path d="m19 21-7-4-7 4V5a2 2 0 0 1 2-2h10a2 2 0 0 1 2 2v16z"></path></symbol>
<symbol viewBox="0 0 24 24" fill="none" stroke="currentColor" stroke-width="2" stroke-linecap="round" stroke-linejoin="round" class="icon icon-tabler icons-tabler-outline icon-tabler-box-multiple" id="box-multiple"><path stroke="none" d="M0 0h24v24H0z" fill="none"></path><path d="M7 3m0 2a2 2 0 0 1 2 -2h10a2 2 0 0 1 2 2v10a2 2 0 0 1 -2 2h-10a2 2 0 0 1 -2 -2z" ></path><path d="M17 17v2a2 2 0 0 1 -2 2h-10a2 2 0 0 1 -2 -2v-10a2 2 0 0 1 2 -2h2" ></path></symbol>
<symbol viewBox="0 0 24 24" fill="none" stroke="currentColor" stroke-width="2" stroke-linecap="round" stroke-linejoin="round" class="icon icon-tabler icons-tabler-outline icon-tabler-box-off" id="box-off"><path stroke="none" d="M0 0h24v24H0z" fill="none"></path><path d="M17.765 17.757l-5.765 3.243l-8 -4.5v-9l2.236 -1.258m2.57 -1.445l3.194 -1.797l8 4.5v8.5" ></path><path d="M14.561 10.559l5.439 -3.059" ></path><path d="M12 12v9" ></path><path d="M12 12l-8 -4.5" ></path><path d="M3 3l18 18" ></path></symbol>
<symbol viewBox="0 0 24 24" fill="none" stroke="currentColor" stroke-width="2" stroke-linecap="round" stroke-linejoin="round" class="icon icon-tabler icons-tabler-outline icon-tabler-brand-android" id="brand-android"><path stroke="none" d="M0 0h24v24H0z" fill="none"></path><path d="M4 10l0 6" ></path><path d="M20 10l0 6" ></path><path d="M7 9h10v8a1 1 0 0 1 -1 1h-8a1 1 0 0 1 -1 -1v-8a5 5 0 0 1 10 0" ></path><path d="M8 3l1 2" ></path><path d="M16 3l-1 2" ></path><path d="M9 18l0 3" ></path><path d="M15 18l0 3" ></path></symbol>
<symbol viewBox="0 0 24 24" fill="none" stroke="currentColor" stroke-width="2" stroke-linecap="round" stroke-linejoin="round" class="icon icon-tabler icons-tabler-outline icon-tabler-brand-apple" id="brand-apple"><path stroke="none" d="M0 0h24v24H0z" fill="none"></path><path d="M8.286 7.008c-3.216 0 -4.286 3.23 -4.286 5.92c0 3.229 2.143 8.072 4.286 8.072c1.165 -.05 1.799 -.538 3.214 -.538c1.406 0 1.607 .538 3.214 .538s4.286 -3.229 4.286 -5.381c-.03 -.011 -2.649 -.434 -2.679 -3.23c-.02 -2.335 2.589 -3.179 2.679 -3.228c-1.096 -1.606 -3.162 -2.113 -3.75 -2.153c-1.535 -.12 -3.032 1.077 -3.75 1.077c-.729 0 -2.036 -1.077 -3.214 -1.077z" ></path><path d="M12 4a2 2 0 0 0 2 -2a2 2 0 0 0 -2 2" ></path></symbol>
<symbol viewBox="0 0 24 24" fill="none" stroke="currentColor" stroke-width="2" stroke-linecap="round" stroke-linejoin="round" class="icon icon-tabler icons-tabler-outline icon-tabler-brand-ubuntu" id="brand-ubuntu"><path stroke="none" d="M0 0h24v24H0z" fill="none"></path><path d="M12 5m-2 0a2 2 0 1 0 4 0a2 2 0 1 0 -4 0" ></path><path d="M17.723 7.41a7.992 7.992 0 0 0 -3.74 -2.162m-3.971 0a7.993 7.993 0 0 0 -3.789 2.216m-1.881 3.215a8 8 0 0 0 -.342 2.32c0 .738 .1 1.453 .287 2.132m1.96 3.428a7.993 7.993 0 0 0 3.759 2.19m4 0a7.993 7.993 0 0 0 3.747 -2.186m1.962 -3.43a8.008 8.008 0 0 0 .287 -2.131c0 -.764 -.107 -1.503 -.307 -2.203" ></path><path d="M5 17m-2 0a2 2 0 1 0 4 0a2 2 0 1 0 -4 0" ></path><path d="M19 17m-2 0a2 2 0 1 0 4 0a2 2 0 1 0 -4 0" ></path></symbol>
<symbol viewBox="0 0 24 24" fill="none" stroke="currentColor" stroke-width="2" stroke-linecap="round" stroke-linejoin="round" class="icon icon-tabler icons-tabler-outline icon-tabler-brand-windows" id="brand-windows"><path stroke="none" d="M0 0h24v24H0z" fill="none"></path><path d="M17.8 20l-12 -1.5c-1 -.1 -1.8 -.9 -1.8 -1.9v-9.2c0 -1 .8 -1.8 1.8 -1.9l12 -1.5c1.2 -.1 2.2 .8 2.2 1.9v12.1c0 1.2 -1.1 2.1 -2.2 1.9z" ></path><path d="M12 5l0 14" ></path><path d="M4 12l16 0" ></path></symbol>
<symbol viewBox="0 0 24 24" fill="none" stroke="currentColor" stroke-width="2" stroke-linecap="round" stroke-linejoin="round" class="icon icon-tabler icons-tabler-outline icon-tabler-briefcase" id="briefcase"><path stroke="none" d="M0 0h24v24H0z" fill="none"></path><path d="M3 7m0 2a2 2 0 0 1 2 -2h14a2 2 0 0 1 2 2v9a2 2 0 0 1 -2 2h-14a2 2 0 0 1 -2 -2z" ></path><path d="M8 7v-2a2 2 0 0 1 2 -2h4a2 2 0 0 1 2 2v2" ></path><path d="M12 12l0 .01" ></path><path d="M3 13a20 20 0 0 0 18 0" ></path></symbol>
<symbol viewBox="0 0 24 24" fill="none" stroke="currentColor" stroke-width="2" stroke-linecap="round" stroke-linejoin="round" class="icon icon-tabler icons-tabler-outline icon-tabler-building-warehouse" id="building-warehouse"><path stroke="none" d="M0 0h24v24H0z" fill="none"></path><path d="M3 21v-13l9 -4l9 4v13" ></path><path d="M13 13h4v8h-10v-6h6" ></path><path d="M13 21v-9a1 1 0 0 0 -1 -1h-2a1 1 0 0 0 -1 1v3" ></path></symbol>
<symbol class="icon icon-tabler icon-tabler-calendar" viewBox="0 0 24 24" stroke-width="2" stroke="currentColor" fill="none" stroke-linecap="round" stroke-linejoin="round" id="calendar"><path stroke="none" d="M0 0h24v24H0z" fill="none"></path><path d="M4 7a2 2 0 0 1 2 -2h12a2 2 0 0 1 2 2v12a2 2 0 0 1 -2 2h-12a2 2 0 0 1 -2 -2v-12z" ></path><path d="M16 3v4" ></path><path d="M8 3v4" ></path><path d="M4 11h16" ></path><path d="M11 15h1" ></path><path d="M12 15v3" ></path></symbol>
<symbol viewBox="0 0 15 15" fill="none" id="camera">
  <path     fill-rule="evenodd"
    clip-rule="evenodd"
    d="M2 3C1.44772 3 1 3.44772 1 4V11C1 11.5523 1.44772 12 2 12H13C13.5523 12 14 11.5523 14 11V4C14 3.44772 13.5523 3 13 3H2ZM0 4C0 2.89543 0.895431 2 2 2H13C14.1046 2 15 2.89543 15 4V11C15 12.1046 14.1046 13 13 13H2C0.895431 13 0 12.1046 0 11V4ZM2 4.25C2 4.11193 2.11193 4 2.25 4H4.75C4.88807 4 5 4.11193 5 4.25V5.75454C5 5.89261 4.88807 6.00454 4.75 6.00454H2.25C2.11193 6.00454 2 5.89261 2 5.75454V4.25ZM12.101 7.58421C12.101 9.02073 10.9365 10.1853 9.49998 10.1853C8.06346 10.1853 6.89893 9.02073 6.89893 7.58421C6.89893 6.14769 8.06346 4.98315 9.49998 4.98315C10.9365 4.98315 12.101 6.14769 12.101 7.58421ZM13.101 7.58421C13.101 9.57302 11.4888 11.1853 9.49998 11.1853C7.51117 11.1853 5.89893 9.57302 5.89893 7.58421C5.89893 5.5954 7.51117 3.98315 9.49998 3.98315C11.4888 3.98315 13.101 5.5954 13.101 7.58421Z"
    fill="currentColor"
  ></path>
</symbol>
<symbol viewBox="0 0 24 24" fill="none" stroke="currentColor" stroke-width="2" stroke-linecap="round" stroke-linejoin="round" class="icon icon-tabler icons-tabler-outline icon-tabler-cash-register" id="cash-register"><path stroke="none" d="M0 0h24v24H0z" fill="none"></path><path d="M21 15h-2.5c-.398 0 -.779 .158 -1.061 .439c-.281 .281 -.439 .663 -.439 1.061c0 .398 .158 .779 .439 1.061c.281 .281 .663 .439 1.061 .439h1c.398 0 .779 .158 1.061 .439c.281 .281 .439 .663 .439 1.061c0 .398 -.158 .779 -.439 1.061c-.281 .281 -.663 .439 -1.061 .439h-2.5" ></path><path d="M19 21v1m0 -8v1" ></path><path d="M13 21h-7c-.53 0 -1.039 -.211 -1.414 -.586c-.375 -.375 -.586 -.884 -.586 -1.414v-10c0 -.53 .211 -1.039 .586 -1.414c.375 -.375 .884 -.586 1.414 -.586h2m12 3.12v-1.12c0 -.53 -.211 -1.039 -.586 -1.414c-.375 -.375 -.884 -.586 -1.414 -.586h-2" ></path><path d="M16 10v-6c0 -.53 -.211 -1.039 -.586 -1.414c-.375 -.375 -.884 -.586 -1.414 -.586h-4c-.53 0 -1.039 .211 -1.414 .586c-.375 .375 -.586 .884 -.586 1.414v6m8 0h-8m8 0h1m-9 0h-1" ></path><path d="M8 14v.01" ></path><path d="M8 17v.01" ></path><path d="M12 13.99v.01" ></path><path d="M12 17v.01" ></path></symbol>
<symbol viewBox="0 0 24 24" fill="none" stroke="currentColor" stroke-width="2" stroke-linecap="round" stroke-linejoin="round" class="icon icon-tabler icons-tabler-outline icon-tabler-cash" id="cash"><path stroke="none" d="M0 0h24v24H0z" fill="none"></path><path d="M7 9m0 2a2 2 0 0 1 2 -2h10a2 2 0 0 1 2 2v6a2 2 0 0 1 -2 2h-10a2 2 0 0 1 -2 -2z" ></path><path d="M14 14m-2 0a2 2 0 1 0 4 0a2 2 0 1 0 -4 0" ></path><path d="M17 9v-2a2 2 0 0 0 -2 -2h-10a2 2 0 0 0 -2 2v6a2 2 0 0 0 2 2h2" ></path></symbol>
<symbol viewBox="0 0 15 15" fill="none" id="check">
  <path     fill-rule="evenodd"
    clip-rule="evenodd"
    d="M11.4669 3.72684C11.7558 3.91574 11.8369 4.30308 11.648 4.59198L7.39799 11.092C7.29783 11.2452 7.13556 11.3467 6.95402 11.3699C6.77247 11.3931 6.58989 11.3355 6.45446 11.2124L3.70446 8.71241C3.44905 8.48022 3.43023 8.08494 3.66242 7.82953C3.89461 7.57412 4.28989 7.55529 4.5453 7.78749L6.75292 9.79441L10.6018 3.90792C10.7907 3.61902 11.178 3.53795 11.4669 3.72684Z"
    fill="currentColor"
  ></path>
</symbol>
<symbol viewBox="0 0 24 24" fill="none" stroke="currentColor" stroke-width="2" stroke-linecap="round" stroke-linejoin="round" class="icon icon-tabler icons-tabler-outline icon-tabler-checklist" id="checklist"><path stroke="none" d="M0 0h24v24H0z" fill="none"></path><path d="M9.615 20h-2.615a2 2 0 0 1 -2 -2v-12a2 2 0 0 1 2 -2h8a2 2 0 0 1 2 2v8" ></path><path d="M14 19l2 2l4 -4" ></path><path d="M9 8h4" ></path><path d="M9 12h2" ></path></symbol>
<symbol class="icon icon-tabler icon-tabler-checks" viewBox="0 0 24 24" stroke-width="2" stroke="currentColor" fill="none" stroke-linecap="round" stroke-linejoin="round" id="checks"><path stroke="none" d="M0 0h24v24H0z" fill="none"></path><path d="M7 12l5 5l10 -10" ></path><path d="M2 12l5 5m5 -5l5 -5" ></path></symbol>
<symbol viewBox="0 0 24 24" fill="none" stroke="currentColor" stroke-width="2" stroke-linecap="round" stroke-linejoin="round" class="lucide lucide-chevron-down" id="chevron-down"><path d="m6 9 6 6 6-6"></path></symbol>
<symbol viewBox="0 0 24 24" fill="none" stroke="currentColor" stroke-width="2" stroke-linecap="round" stroke-linejoin="round" class="icon icon-tabler icons-tabler-outline icon-tabler-chevron-left" id="chevron-left"><path stroke="none" d="M0 0h24v24H0z" fill="none"></path><path d="M15 6l-6 6l6 6" ></path></symbol>
<symbol viewBox="0 0 15 15" fill="none" id="chevron-right">
  <path 
    fill-rule="evenodd"
    clip-rule="evenodd"
    d="M6.1584 3.13508C6.35985 2.94621 6.67627 2.95642 6.86514 3.15788L10.6151 7.15788C10.7954 7.3502 10.7954 7.64949 10.6151 7.84182L6.86514 11.8418C6.67627 12.0433 6.35985 12.0535 6.1584 11.8646C5.95694 11.6757 5.94673 11.3593 6.1356 11.1579L9.565 7.49985L6.1356 3.84182C5.94673 3.64036 5.95694 3.32394 6.1584 3.13508Z"
    fill="currentColor"
  ></path>
</symbol>
<symbol viewBox="0 0 15 15" fill="none" id="chevron-up">
  <path 
    fill-rule="evenodd"
    clip-rule="evenodd"
    d="M3.13523 8.84197C3.3241 9.04343 3.64052 9.05363 3.84197 8.86477L7.5 5.43536L11.158 8.86477C11.3595 9.05363 11.6759 9.04343 11.8648 8.84197C12.0536 8.64051 12.0434 8.32409 11.842 8.13523L7.84197 4.38523C7.64964 4.20492 7.35036 4.20492 7.15803 4.38523L3.15803 8.13523C2.95657 8.32409 2.94637 8.64051 3.13523 8.84197Z"
    fill="currentColor"
  ></path>
</symbol>
<symbol viewBox="0 0 24 24" fill="none" stroke="currentColor" stroke-width="2" stroke-linecap="round" stroke-linejoin="round" class="icon icon-tabler icons-tabler-outline icon-tabler-circle-check" id="circle-check"><path stroke="none" d="M0 0h24v24H0z" fill="none"></path><path d="M12 12m-9 0a9 9 0 1 0 18 0a9 9 0 1 0 -18 0" ></path><path d="M9 12l2 2l4 -4" ></path></symbol>
<symbol viewBox="0 0 24 24" fill="none" stroke="currentColor" stroke-width="2" stroke-linecap="round" stroke-linejoin="round" class="icon icon-tabler icons-tabler-outline icon-tabler-circle-dashed" id="circle-dashed"><path stroke="none" d="M0 0h24v24H0z" fill="none"></path><path d="M8.56 3.69a9 9 0 0 0 -2.92 1.95" ></path><path d="M3.69 8.56a9 9 0 0 0 -.69 3.44" ></path><path d="M3.69 15.44a9 9 0 0 0 1.95 2.92" ></path><path d="M8.56 20.31a9 9 0 0 0 3.44 .69" ></path><path d="M15.44 20.31a9 9 0 0 0 2.92 -1.95" ></path><path d="M20.31 15.44a9 9 0 0 0 .69 -3.44" ></path><path d="M20.31 8.56a9 9 0 0 0 -1.95 -2.92" ></path><path d="M15.44 3.69a9 9 0 0 0 -3.44 -.69" ></path></symbol>
<symbol viewBox="0 0 24 24" fill="none" stroke="currentColor" stroke-width="2" stroke-linecap="round" stroke-linejoin="round" class="lucide lucide-circle-dollar-sign" id="circle-dollar-sign"><circle cx="12" cy="12" r="10"></circle><path d="M16 8h-6a2 2 0 1 0 0 4h4a2 2 0 1 1 0 4H8"></path><path d="M12 18V6"></path></symbol>
<symbol viewBox="0 0 24 24" fill="none" stroke="currentColor" stroke-width="2" stroke-linecap="round" stroke-linejoin="round" class="lucide lucide-circle-dot-dashed" id="circle-dot-dashed"><path d="M10.1 2.18a9.93 9.93 0 0 1 3.8 0"></path><path d="M17.6 3.71a9.95 9.95 0 0 1 2.69 2.7"></path><path d="M21.82 10.1a9.93 9.93 0 0 1 0 3.8"></path><path d="M20.29 17.6a9.95 9.95 0 0 1-2.7 2.69"></path><path d="M13.9 21.82a9.94 9.94 0 0 1-3.8 0"></path><path d="M6.4 20.29a9.95 9.95 0 0 1-2.69-2.7"></path><path d="M2.18 13.9a9.93 9.93 0 0 1 0-3.8"></path><path d="M3.71 6.4a9.95 9.95 0 0 1 2.7-2.69"></path><circle cx="12" cy="12" r="1"></circle></symbol>
<symbol class="icon icon-tabler icon-tabler-circle-percentage" viewBox="0 0 24 24" stroke-width="2" stroke="currentColor" fill="none" stroke-linecap="round" stroke-linejoin="round" id="circle-percentage"><path stroke="none" d="M0 0h24v24H0z" fill="none"></path><path d="M3 12a9 9 0 1 0 18 0a9 9 0 0 0 -18 0" ></path><path d="M9 15.075l6 -6" ></path><path d="M9 9.105v.015" ></path><path d="M15 15.12v.015" ></path></symbol>
<symbol viewBox="0 0 24 24" fill="none" stroke="currentColor" stroke-width="2" stroke-linecap="round" stroke-linejoin="round" class="icon icon-tabler icons-tabler-outline icon-tabler-circle-x" id="circle-x"><path stroke="none" d="M0 0h24v24H0z" fill="none"></path><path d="M12 12m-9 0a9 9 0 1 0 18 0a9 9 0 1 0 -18 0" ></path><path d="M10 10l4 4m0 -4l-4 4" ></path></symbol>
<symbol viewBox="0 0 24 24" fill="none" stroke="currentColor" stroke-width="2" stroke-linecap="round" stroke-linejoin="round" class="icon icon-tabler icons-tabler-outline icon-tabler-clock-up" id="clock-up"><path stroke="none" d="M0 0h24v24H0z" fill="none"></path><path d="M20.983 12.548a9 9 0 1 0 -8.45 8.436" ></path><path d="M19 22v-6" ></path><path d="M22 19l-3 -3l-3 3" ></path><path d="M12 7v5l2.5 2.5" ></path></symbol>
<symbol viewBox="0 0 15 15" fill="none" id="clock">
  <path     fill-rule="evenodd"
    clip-rule="evenodd"
    d="M7.50009 0.877014C3.84241 0.877014 0.877258 3.84216 0.877258 7.49984C0.877258 11.1575 3.8424 14.1227 7.50009 14.1227C11.1578 14.1227 14.1229 11.1575 14.1229 7.49984C14.1229 3.84216 11.1577 0.877014 7.50009 0.877014ZM1.82726 7.49984C1.82726 4.36683 4.36708 1.82701 7.50009 1.82701C10.6331 1.82701 13.1729 4.36683 13.1729 7.49984C13.1729 10.6328 10.6331 13.1727 7.50009 13.1727C4.36708 13.1727 1.82726 10.6328 1.82726 7.49984ZM8 4.50001C8 4.22387 7.77614 4.00001 7.5 4.00001C7.22386 4.00001 7 4.22387 7 4.50001V7.50001C7 7.63262 7.05268 7.7598 7.14645 7.85357L9.14645 9.85357C9.34171 10.0488 9.65829 10.0488 9.85355 9.85357C10.0488 9.65831 10.0488 9.34172 9.85355 9.14646L8 7.29291V4.50001Z"
    fill="currentColor"
  ></path>
</symbol>
<symbol viewBox="0 0 24 24" fill="currentColor" class="icon icon-tabler icons-tabler-filled icon-tabler-coin" id="coin"><path stroke="none" d="M0 0h24v24H0z" fill="none"></path><path d="M17 3.34a10 10 0 1 1 -15 8.66l.005 -.324a10 10 0 0 1 14.995 -8.336zm-5 2.66a1 1 0 0 0 -1 1a3 3 0 1 0 0 6v2a1.024 1.024 0 0 1 -.866 -.398l-.068 -.101a1 1 0 0 0 -1.732 .998a3 3 0 0 0 2.505 1.5h.161a1 1 0 0 0 .883 .994l.117 .007a1 1 0 0 0 1 -1l.176 -.005a3 3 0 0 0 -.176 -5.995v-2c.358 -.012 .671 .14 .866 .398l.068 .101a1 1 0 0 0 1.732 -.998a3 3 0 0 0 -2.505 -1.501h-.161a1 1 0 0 0 -1 -1zm1 7a1 1 0 0 1 0 2v-2zm-2 -4v2a1 1 0 0 1 0 -2z" ></path></symbol>
<symbol viewBox="0 0 24 24" fill="none" stroke="currentColor" stroke-width="2" stroke-linecap="round" stroke-linejoin="round" class="icon icon-tabler icons-tabler-outline icon-tabler-copy" id="copy"><path stroke="none" d="M0 0h24v24H0z" fill="none"></path><path d="M7 7m0 2.667a2.667 2.667 0 0 1 2.667 -2.667h8.666a2.667 2.667 0 0 1 2.667 2.667v8.666a2.667 2.667 0 0 1 -2.667 2.667h-8.666a2.667 2.667 0 0 1 -2.667 -2.667z" ></path><path d="M4.012 16.737a2.005 2.005 0 0 1 -1.012 -1.737v-10c0 -1.1 .9 -2 2 -2h10c.75 0 1.158 .385 1.5 1" ></path></symbol>
<symbol viewBox="0 0 24 24" fill="none" stroke="currentColor" stroke-width="2" stroke-linecap="round" stroke-linejoin="round" class="icon icon-tabler icons-tabler-outline icon-tabler-credit-card" id="credit-card"><path stroke="none" d="M0 0h24v24H0z" fill="none"></path><path d="M3 5m0 3a3 3 0 0 1 3 -3h12a3 3 0 0 1 3 3v8a3 3 0 0 1 -3 3h-12a3 3 0 0 1 -3 -3z" ></path><path d="M3 10l18 0" ></path><path d="M7 15l.01 0" ></path><path d="M11 15l2 0" ></path></symbol>
<symbol viewBox="0 0 15 15" fill="none" id="cross-1">
  <path     fill-rule="evenodd"
    clip-rule="evenodd"
    d="M12.8536 2.85355C13.0488 2.65829 13.0488 2.34171 12.8536 2.14645C12.6583 1.95118 12.3417 1.95118 12.1464 2.14645L7.5 6.79289L2.85355 2.14645C2.65829 1.95118 2.34171 1.95118 2.14645 2.14645C1.95118 2.34171 1.95118 2.65829 2.14645 2.85355L6.79289 7.5L2.14645 12.1464C1.95118 12.3417 1.95118 12.6583 2.14645 12.8536C2.34171 13.0488 2.65829 13.0488 2.85355 12.8536L7.5 8.20711L12.1464 12.8536C12.3417 13.0488 12.6583 13.0488 12.8536 12.8536C13.0488 12.6583 13.0488 12.3417 12.8536 12.1464L8.20711 7.5L12.8536 2.85355Z"
    fill="currentColor"
  ></path>
</symbol>
<symbol viewBox="0 0 24 24" fill="none" stroke="currentColor" stroke-width="2" stroke-linecap="round" stroke-linejoin="round" class="icon icon-tabler icons-tabler-outline icon-tabler-cube-plus" id="cube-plus"><path stroke="none" d="M0 0h24v24H0z" fill="none"></path><path d="M21 12.5v-4.509a1.98 1.98 0 0 0 -1 -1.717l-7 -4.008a2.016 2.016 0 0 0 -2 0l-7 4.007c-.619 .355 -1 1.01 -1 1.718v8.018c0 .709 .381 1.363 1 1.717l7 4.008a2.016 2.016 0 0 0 2 0" ></path><path d="M12 22v-10" ></path><path d="M12 12l8.73 -5.04" ></path><path d="M3.27 6.96l8.73 5.04" ></path><path d="M16 19h6" ></path><path d="M19 16v6" ></path></symbol>
<symbol class="icon icon-tabler icon-tabler-currency-dollar" viewBox="0 0 24 24" stroke-width="2" stroke="currentColor" fill="none" stroke-linecap="round" stroke-linejoin="round" id="currency-dollar"><path stroke="none" d="M0 0h24v24H0z" fill="none"></path><path d="M16.7 8a3 3 0 0 0 -2.7 -2h-4a3 3 0 0 0 0 6h4a3 3 0 0 1 0 6h-4a3 3 0 0 1 -2.7 -2" ></path><path d="M12 3v3m0 12v3" ></path></symbol>
<symbol viewBox="0 0 24 24" fill="none" stroke="currentColor" stroke-width="2" stroke-linecap="round" stroke-linejoin="round" class="icon icon-tabler icons-tabler-outline icon-tabler-device-desktop" id="device-desktop"><path stroke="none" d="M0 0h24v24H0z" fill="none"></path><path d="M3 5a1 1 0 0 1 1 -1h16a1 1 0 0 1 1 1v10a1 1 0 0 1 -1 1h-16a1 1 0 0 1 -1 -1v-10z" ></path><path d="M7 20h10" ></path><path d="M9 16v4" ></path><path d="M15 16v4" ></path></symbol>
<symbol viewBox="0 0 24 24" fill="none" stroke="currentColor" stroke-width="2" stroke-linecap="round" stroke-linejoin="round" class="lucide lucide-dot" id="dot"><circle cx="12.1" cy="12.1" r="1"></circle></symbol>
<symbol viewBox="0 0 15 15" fill="none" id="dots-horizontal">
  <path     fill-rule="evenodd"
    clip-rule="evenodd"
    d="M3.625 7.5C3.625 8.12132 3.12132 8.625 2.5 8.625C1.87868 8.625 1.375 8.12132 1.375 7.5C1.375 6.87868 1.87868 6.375 2.5 6.375C3.12132 6.375 3.625 6.87868 3.625 7.5ZM8.625 7.5C8.625 8.12132 8.12132 8.625 7.5 8.625C6.87868 8.625 6.375 8.12132 6.375 7.5C6.375 6.87868 6.87868 6.375 7.5 6.375C8.12132 6.375 8.625 6.87868 8.625 7.5ZM12.5 8.625C13.1213 8.625 13.625 8.12132 13.625 7.5C13.625 6.87868 13.1213 6.375 12.5 6.375C11.8787 6.375 11.375 6.87868 11.375 7.5C11.375 8.12132 11.8787 8.625 12.5 8.625Z"
    fill="currentColor"
  ></path>
</symbol>
<symbol class="icon icon-tabler icon-tabler-dots-vertical" viewBox="0 0 24 24" stroke-width="2" stroke="currentColor" fill="none" stroke-linecap="round" stroke-linejoin="round" id="dots-vertical"><path stroke="none" d="M0 0h24v24H0z" fill="none"></path><path d="M12 12m-1 0a1 1 0 1 0 2 0a1 1 0 1 0 -2 0" ></path><path d="M12 19m-1 0a1 1 0 1 0 2 0a1 1 0 1 0 -2 0" ></path><path d="M12 5m-1 0a1 1 0 1 0 2 0a1 1 0 1 0 -2 0" ></path></symbol>
<symbol viewBox="0 0 15 15" fill="none" id="double-arrow-down">
  <path 
    fill-rule="evenodd"
    clip-rule="evenodd"
    d="M3.85355 2.14645C3.65829 1.95118 3.34171 1.95118 3.14645 2.14645C2.95118 2.34171 2.95118 2.65829 3.14645 2.85355L7.14645 6.85355C7.34171 7.04882 7.65829 7.04882 7.85355 6.85355L11.8536 2.85355C12.0488 2.65829 12.0488 2.34171 11.8536 2.14645C11.6583 1.95118 11.3417 1.95118 11.1464 2.14645L7.5 5.79289L3.85355 2.14645ZM3.85355 8.14645C3.65829 7.95118 3.34171 7.95118 3.14645 8.14645C2.95118 8.34171 2.95118 8.65829 3.14645 8.85355L7.14645 12.8536C7.34171 13.0488 7.65829 13.0488 7.85355 12.8536L11.8536 8.85355C12.0488 8.65829 12.0488 8.34171 11.8536 8.14645C11.6583 7.95118 11.3417 7.95118 11.1464 8.14645L7.5 11.7929L3.85355 8.14645Z"
    fill="currentColor"
  ></path>
</symbol>
<symbol viewBox="0 0 15 15" fill="none" id="double-arrow-left">
  <path 
    fill-rule="evenodd"
    clip-rule="evenodd"
    d="M6.85355 3.85355C7.04882 3.65829 7.04882 3.34171 6.85355 3.14645C6.65829 2.95118 6.34171 2.95118 6.14645 3.14645L2.14645 7.14645C1.95118 7.34171 1.95118 7.65829 2.14645 7.85355L6.14645 11.8536C6.34171 12.0488 6.65829 12.0488 6.85355 11.8536C7.04882 11.6583 7.04882 11.3417 6.85355 11.1464L3.20711 7.5L6.85355 3.85355ZM12.8536 3.85355C13.0488 3.65829 13.0488 3.34171 12.8536 3.14645C12.6583 2.95118 12.3417 2.95118 12.1464 3.14645L8.14645 7.14645C7.95118 7.34171 7.95118 7.65829 8.14645 7.85355L12.1464 11.8536C12.3417 12.0488 12.6583 12.0488 12.8536 11.8536C13.0488 11.6583 13.0488 11.3417 12.8536 11.1464L9.20711 7.5L12.8536 3.85355Z"
    fill="currentColor"
  ></path>
</symbol>
<symbol viewBox="0 0 15 15" fill="none" id="double-arrow-right">
  <path 
    fill-rule="evenodd"
    clip-rule="evenodd"
    d="M2.14645 11.1464C1.95118 11.3417 1.95118 11.6583 2.14645 11.8536C2.34171 12.0488 2.65829 12.0488 2.85355 11.8536L6.85355 7.85355C7.04882 7.65829 7.04882 7.34171 6.85355 7.14645L2.85355 3.14645C2.65829 2.95118 2.34171 2.95118 2.14645 3.14645C1.95118 3.34171 1.95118 3.65829 2.14645 3.85355L5.79289 7.5L2.14645 11.1464ZM8.14645 11.1464C7.95118 11.3417 7.95118 11.6583 8.14645 11.8536C8.34171 12.0488 8.65829 12.0488 8.85355 11.8536L12.8536 7.85355C13.0488 7.65829 13.0488 7.34171 12.8536 7.14645L8.85355 3.14645C8.65829 2.95118 8.34171 2.95118 8.14645 3.14645C7.95118 3.34171 7.95118 3.65829 8.14645 3.85355L11.7929 7.5L8.14645 11.1464Z"
    fill="currentColor"
  ></path>
</symbol>
<symbol viewBox="0 0 15 15" fill="none" id="double-arrow-up">
  <path 
    fill-rule="evenodd"
    clip-rule="evenodd"
    d="M11.1464 6.85355C11.3417 7.04882 11.6583 7.04882 11.8536 6.85355C12.0488 6.65829 12.0488 6.34171 11.8536 6.14645L7.85355 2.14645C7.65829 1.95118 7.34171 1.95118 7.14645 2.14645L3.14645 6.14645C2.95118 6.34171 2.95118 6.65829 3.14645 6.85355C3.34171 7.04882 3.65829 7.04882 3.85355 6.85355L7.5 3.20711L11.1464 6.85355ZM11.1464 12.8536C11.3417 13.0488 11.6583 13.0488 11.8536 12.8536C12.0488 12.6583 12.0488 12.3417 11.8536 12.1464L7.85355 8.14645C7.65829 7.95118 7.34171 7.95118 7.14645 8.14645L3.14645 12.1464C2.95118 12.3417 2.95118 12.6583 3.14645 12.8536C3.34171 13.0488 3.65829 13.0488 3.85355 12.8536L7.5 9.20711L11.1464 12.8536Z"
    fill="currentColor"
  ></path>
</symbol>
<symbol viewBox="0 0 15 15" fill="none" id="download">
  <path     fill-rule="evenodd"
    clip-rule="evenodd"
    d="M7.50005 1.04999C7.74858 1.04999 7.95005 1.25146 7.95005 1.49999V8.41359L10.1819 6.18179C10.3576 6.00605 10.6425 6.00605 10.8182 6.18179C10.994 6.35753 10.994 6.64245 10.8182 6.81819L7.81825 9.81819C7.64251 9.99392 7.35759 9.99392 7.18185 9.81819L4.18185 6.81819C4.00611 6.64245 4.00611 6.35753 4.18185 6.18179C4.35759 6.00605 4.64251 6.00605 4.81825 6.18179L7.05005 8.41359V1.49999C7.05005 1.25146 7.25152 1.04999 7.50005 1.04999ZM2.5 10C2.77614 10 3 10.2239 3 10.5V12C3 12.5539 3.44565 13 3.99635 13H11.0012C11.5529 13 12 12.5528 12 12V10.5C12 10.2239 12.2239 10 12.5 10C12.7761 10 13 10.2239 13 10.5V12C13 13.1041 12.1062 14 11.0012 14H3.99635C2.89019 14 2 13.103 2 12V10.5C2 10.2239 2.22386 10 2.5 10Z"
    fill="currentColor"
  ></path>
</symbol>
<symbol viewBox="0 0 24 24" fill="none" stroke="currentColor" stroke-width="2" stroke-linecap="round" stroke-linejoin="round" class="lucide lucide-ellipsis" id="ellipsis"><circle cx="12" cy="12" r="1"></circle><circle cx="19" cy="12" r="1"></circle><circle cx="5" cy="12" r="1"></circle></symbol>
<symbol viewBox="0 0 15 15" fill="none" id="envelope-closed">
  <path     fill-rule="evenodd"
    clip-rule="evenodd"
    d="M1 2C0.447715 2 0 2.44772 0 3V12C0 12.5523 0.447715 13 1 13H14C14.5523 13 15 12.5523 15 12V3C15 2.44772 14.5523 2 14 2H1ZM1 3L14 3V3.92494C13.9174 3.92486 13.8338 3.94751 13.7589 3.99505L7.5 7.96703L1.24112 3.99505C1.16621 3.94751 1.0826 3.92486 1 3.92494V3ZM1 4.90797V12H14V4.90797L7.74112 8.87995C7.59394 8.97335 7.40606 8.97335 7.25888 8.87995L1 4.90797Z"
    fill="currentColor"
  ></path>
</symbol>
<symbol class="icon icon-tabler icon-tabler-exclamation-circle" viewBox="0 0 24 24" stroke-width="2" stroke="currentColor" fill="none" stroke-linecap="round" stroke-linejoin="round" id="exclamation-circle"><path stroke="none" d="M0 0h24v24H0z" fill="none"></path><path d="M12 12m-9 0a9 9 0 1 0 18 0a9 9 0 1 0 -18 0" ></path><path d="M12 9v4" ></path><path d="M12 16v.01" ></path></symbol>
<symbol viewBox="0 0 15 15" fill="none" id="exit">
  <path     fill-rule="evenodd"
    clip-rule="evenodd"
    d="M3 1C2.44771 1 2 1.44772 2 2V13C2 13.5523 2.44772 14 3 14H10.5C10.7761 14 11 13.7761 11 13.5C11 13.2239 10.7761 13 10.5 13H3V2L10.5 2C10.7761 2 11 1.77614 11 1.5C11 1.22386 10.7761 1 10.5 1H3ZM12.6036 4.89645C12.4083 4.70118 12.0917 4.70118 11.8964 4.89645C11.7012 5.09171 11.7012 5.40829 11.8964 5.60355L13.2929 7H6.5C6.22386 7 6 7.22386 6 7.5C6 7.77614 6.22386 8 6.5 8H13.2929L11.8964 9.39645C11.7012 9.59171 11.7012 9.90829 11.8964 10.1036C12.0917 10.2988 12.4083 10.2988 12.6036 10.1036L14.8536 7.85355C15.0488 7.65829 15.0488 7.34171 14.8536 7.14645L12.6036 4.89645Z"
    fill="currentColor"
  ></path>
</symbol>
<symbol viewBox="0 0 24 24" fill="none" stroke="currentColor" stroke-width="2" stroke-linecap="round" stroke-linejoin="round" class="icon icon-tabler icons-tabler-outline icon-tabler-file-arrow-right" id="file-arrow-right"><path stroke="none" d="M0 0h24v24H0z" fill="none"></path><path d="M14 3v4a1 1 0 0 0 1 1h4" ></path><path d="M17 21h-10a2 2 0 0 1 -2 -2v-14a2 2 0 0 1 2 -2h7l5 5v11a2 2 0 0 1 -2 2z" ></path><path d="M9 15h6" ></path><path d="M12.5 17.5l2.5 -2.5l-2.5 -2.5" ></path></symbol>
<symbol viewBox="0 0 24 24" fill="none" stroke="currentColor" stroke-width="2" stroke-linecap="round" stroke-linejoin="round" class="lucide lucide-file-bar-chart" id="file-bar-chart"><path d="M14.5 2H6a2 2 0 0 0-2 2v16a2 2 0 0 0 2 2h12a2 2 0 0 0 2-2V7.5L14.5 2z"></path><polyline points="14 2 14 8 20 8"></polyline><path d="M12 18v-4"></path><path d="M8 18v-2"></path><path d="M16 18v-6"></path></symbol>
<symbol viewBox="0 0 15 15" fill="none" id="file-text">
  <path     fill-rule="evenodd"
    clip-rule="evenodd"
    d="M3 2.5C3 2.22386 3.22386 2 3.5 2H9.08579C9.21839 2 9.34557 2.05268 9.43934 2.14645L11.8536 4.56066C11.9473 4.65443 12 4.78161 12 4.91421V12.5C12 12.7761 11.7761 13 11.5 13H3.5C3.22386 13 3 12.7761 3 12.5V2.5ZM3.5 1C2.67157 1 2 1.67157 2 2.5V12.5C2 13.3284 2.67157 14 3.5 14H11.5C12.3284 14 13 13.3284 13 12.5V4.91421C13 4.51639 12.842 4.13486 12.5607 3.85355L10.1464 1.43934C9.86514 1.15804 9.48361 1 9.08579 1H3.5ZM4.5 4C4.22386 4 4 4.22386 4 4.5C4 4.77614 4.22386 5 4.5 5H7.5C7.77614 5 8 4.77614 8 4.5C8 4.22386 7.77614 4 7.5 4H4.5ZM4.5 7C4.22386 7 4 7.22386 4 7.5C4 7.77614 4.22386 8 4.5 8H10.5C10.7761 8 11 7.77614 11 7.5C11 7.22386 10.7761 7 10.5 7H4.5ZM4.5 10C4.22386 10 4 10.2239 4 10.5C4 10.7761 4.22386 11 4.5 11H10.5C10.7761 11 11 10.7761 11 10.5C11 10.2239 10.7761 10 10.5 10H4.5Z"
    fill="currentColor"
  ></path>
</symbol>
<symbol viewBox="0 0 24 24" fill="none" stroke="currentColor" stroke-width="2" stroke-linecap="round" stroke-linejoin="round" class="icon icon-tabler icons-tabler-outline icon-tabler-file-type-csv" id="file-type-csv"><path stroke="none" d="M0 0h24v24H0z" fill="none"></path><path d="M14 3v4a1 1 0 0 0 1 1h4" ></path><path d="M5 12v-7a2 2 0 0 1 2 -2h7l5 5v4" ></path><path d="M7 16.5a1.5 1.5 0 0 0 -3 0v3a1.5 1.5 0 0 0 3 0" ></path><path d="M10 20.25c0 .414 .336 .75 .75 .75h1.25a1 1 0 0 0 1 -1v-1a1 1 0 0 0 -1 -1h-1a1 1 0 0 1 -1 -1v-1a1 1 0 0 1 1 -1h1.25a.75 .75 0 0 1 .75 .75" ></path><path d="M16 15l2 6l2 -6" ></path></symbol>
<symbol viewBox="0 0 24 24" fill="none" stroke="currentColor" stroke-width="2" stroke-linecap="round" stroke-linejoin="round" class="icon icon-tabler icons-tabler-outline icon-tabler-filter-off" id="filter-off"><path stroke="none" d="M0 0h24v24H0z" fill="none"></path><path d="M8 4h12v2.172a2 2 0 0 1 -.586 1.414l-3.914 3.914m-.5 3.5v4l-6 2v-8.5l-4.48 -4.928a2 2 0 0 1 -.52 -1.345v-2.227" ></path><path d="M3 3l18 18" ></path></symbol>
<symbol viewBox="0 0 24 24" fill="none" stroke="currentColor" stroke-width="2" stroke-linecap="round" stroke-linejoin="round" class="lucide lucide-filter" id="filter"><polygon points="22 3 2 3 10 12.46 10 19 14 21 14 12.46 22 3"></polygon></symbol>
<symbol viewBox="0 0 15 15" fill="none" id="github-logo">
  <path     fill-rule="evenodd"
    clip-rule="evenodd"
    d="M7.49933 0.25C3.49635 0.25 0.25 3.49593 0.25 7.50024C0.25 10.703 2.32715 13.4206 5.2081 14.3797C5.57084 14.446 5.70302 14.2222 5.70302 14.0299C5.70302 13.8576 5.69679 13.4019 5.69323 12.797C3.67661 13.235 3.25112 11.825 3.25112 11.825C2.92132 10.9874 2.44599 10.7644 2.44599 10.7644C1.78773 10.3149 2.49584 10.3238 2.49584 10.3238C3.22353 10.375 3.60629 11.0711 3.60629 11.0711C4.25298 12.1788 5.30335 11.8588 5.71638 11.6732C5.78225 11.205 5.96962 10.8854 6.17658 10.7043C4.56675 10.5209 2.87415 9.89918 2.87415 7.12104C2.87415 6.32925 3.15677 5.68257 3.62053 5.17563C3.54576 4.99226 3.29697 4.25521 3.69174 3.25691C3.69174 3.25691 4.30015 3.06196 5.68522 3.99973C6.26337 3.83906 6.8838 3.75895 7.50022 3.75583C8.1162 3.75895 8.73619 3.83906 9.31523 3.99973C10.6994 3.06196 11.3069 3.25691 11.3069 3.25691C11.7026 4.25521 11.4538 4.99226 11.3795 5.17563C11.8441 5.68257 12.1245 6.32925 12.1245 7.12104C12.1245 9.9063 10.4292 10.5192 8.81452 10.6985C9.07444 10.9224 9.30633 11.3648 9.30633 12.0413C9.30633 13.0102 9.29742 13.7922 9.29742 14.0299C9.29742 14.2239 9.42828 14.4496 9.79591 14.3788C12.6746 13.4179 14.75 10.7025 14.75 7.50024C14.75 3.49593 11.5036 0.25 7.49933 0.25Z"
    fill="currentColor"
  ></path>
</symbol>
<symbol viewBox="0 0 24 24" fill="none" stroke="currentColor" stroke-width="2" stroke-linecap="round" stroke-linejoin="round" class="icon icon-tabler icons-tabler-outline icon-tabler-graph" id="graph"><path stroke="none" d="M0 0h24v24H0z" fill="none"></path><path d="M4 18v-12a2 2 0 0 1 2 -2h12a2 2 0 0 1 2 2v12a2 2 0 0 1 -2 2h-12a2 2 0 0 1 -2 -2z" ></path><path d="M7 14l3 -3l2 2l3 -3l2 2" ></path></symbol>
<symbol viewBox="0 0 24 24" fill="none" stroke="currentColor" stroke-width="2" stroke-linecap="round" stroke-linejoin="round" class="icon icon-tabler icons-tabler-outline icon-tabler-hash" id="hash"><path stroke="none" d="M0 0h24v24H0z" fill="none"></path><path d="M5 9l14 0" ></path><path d="M5 15l14 0" ></path><path d="M11 4l-4 16" ></path><path d="M17 4l-4 16" ></path></symbol>
<symbol viewBox="0 0 24 24" fill="none" stroke="currentColor" stroke-width="2" stroke-linecap="round" stroke-linejoin="round" class="icon icon-tabler icons-tabler-outline icon-tabler-help" id="help"><path stroke="none" d="M0 0h24v24H0z" fill="none"></path><path d="M12 12m-9 0a9 9 0 1 0 18 0a9 9 0 1 0 -18 0" ></path><path d="M12 17l0 .01" ></path><path d="M12 13.5a1.5 1.5 0 0 1 1 -1.5a2.6 2.6 0 1 0 -3 -4" ></path></symbol>
<symbol viewBox="0 0 24 24" fill="none" stroke="currentColor" stroke-width="2" stroke-linecap="round" stroke-linejoin="round" class="icon icon-tabler icons-tabler-outline icon-tabler-hourglass" id="hourglass"><path stroke="none" d="M0 0h24v24H0z" fill="none"></path><path d="M6.5 7h11" ></path><path d="M6.5 17h11" ></path><path d="M6 20v-2a6 6 0 1 1 12 0v2a1 1 0 0 1 -1 1h-10a1 1 0 0 1 -1 -1z" ></path><path d="M6 4v2a6 6 0 1 0 12 0v-2a1 1 0 0 0 -1 -1h-10a1 1 0 0 0 -1 1z" ></path></symbol>
<symbol viewBox="0 0 24 24" fill="none" stroke="currentColor" stroke-width="2" stroke-linecap="round" stroke-linejoin="round" class="icon icon-tabler icons-tabler-outline icon-tabler-id-badge-2" id="id-badge-2"><path stroke="none" d="M0 0h24v24H0z" fill="none"></path><path d="M7 12h3v4h-3z" ></path><path d="M10 6h-6a1 1 0 0 0 -1 1v12a1 1 0 0 0 1 1h16a1 1 0 0 0 1 -1v-12a1 1 0 0 0 -1 -1h-6" ></path><path d="M10 3m0 1a1 1 0 0 1 1 -1h2a1 1 0 0 1 1 1v3a1 1 0 0 1 -1 1h-2a1 1 0 0 1 -1 -1z" ></path><path d="M14 16h2" ></path><path d="M14 12h4" ></path></symbol>
<symbol class="icon icon-tabler icon-tabler-id" viewBox="0 0 24 24" stroke-width="2" stroke="currentColor" fill="none" stroke-linecap="round" stroke-linejoin="round" id="id"><path stroke="none" d="M0 0h24v24H0z" fill="none"></path><path d="M3 4m0 3a3 3 0 0 1 3 -3h12a3 3 0 0 1 3 3v10a3 3 0 0 1 -3 3h-12a3 3 0 0 1 -3 -3z" ></path><path d="M9 10m-2 0a2 2 0 1 0 4 0a2 2 0 1 0 -4 0" ></path><path d="M15 8l2 0" ></path><path d="M15 12l2 0" ></path><path d="M7 16l10 0" ></path></symbol>
<symbol viewBox="0 0 15 15" fill="none" id="laptop">
  <path     fill-rule="evenodd"
    clip-rule="evenodd"
    d="M2 4.25C2 4.11193 2.11193 4 2.25 4H12.75C12.8881 4 13 4.11193 13 4.25V11.5H2V4.25ZM2.25 3C1.55964 3 1 3.55964 1 4.25V12H0V12.5C0 12.7761 0.223858 13 0.5 13H14.5C14.7761 13 15 12.7761 15 12.5V12H14V4.25C14 3.55964 13.4404 3 12.75 3H2.25Z"
    fill="currentColor"
  ></path>
</symbol>
<symbol viewBox="0 0 24 24" fill="none" stroke="currentColor" stroke-width="2" stroke-linecap="round" stroke-linejoin="round" class="icon icon-tabler icons-tabler-outline icon-tabler-layout-grid" id="layout-grid"><path stroke="none" d="M0 0h24v24H0z" fill="none"></path><path d="M4 4m0 1a1 1 0 0 1 1 -1h4a1 1 0 0 1 1 1v4a1 1 0 0 1 -1 1h-4a1 1 0 0 1 -1 -1z" ></path><path d="M14 4m0 1a1 1 0 0 1 1 -1h4a1 1 0 0 1 1 1v4a1 1 0 0 1 -1 1h-4a1 1 0 0 1 -1 -1z" ></path><path d="M4 14m0 1a1 1 0 0 1 1 -1h4a1 1 0 0 1 1 1v4a1 1 0 0 1 -1 1h-4a1 1 0 0 1 -1 -1z" ></path><path d="M14 14m0 1a1 1 0 0 1 1 -1h4a1 1 0 0 1 1 1v4a1 1 0 0 1 -1 1h-4a1 1 0 0 1 -1 -1z" ></path></symbol>
<symbol class="icon icon-tabler icon-tabler-layout-sidebar-left-collapse" viewBox="0 0 24 24" stroke-width="2" stroke="currentColor" fill="none" stroke-linecap="round" stroke-linejoin="round" id="layout-sidebar-left-collapse"><path stroke="none" d="M0 0h24v24H0z" fill="none"></path><path d="M4 4m0 2a2 2 0 0 1 2 -2h12a2 2 0 0 1 2 2v12a2 2 0 0 1 -2 2h-12a2 2 0 0 1 -2 -2z" ></path><path d="M9 4v16" ></path><path d="M15 10l-2 2l2 2" ></path></symbol>
<symbol class="icon icon-tabler icon-tabler-layout-sidebar-left-expand" viewBox="0 0 24 24" stroke-width="2" stroke="currentColor" fill="none" stroke-linecap="round" stroke-linejoin="round" id="layout-sidebar-left-expand"><path stroke="none" d="M0 0h24v24H0z" fill="none"></path><path d="M4 4m0 2a2 2 0 0 1 2 -2h12a2 2 0 0 1 2 2v12a2 2 0 0 1 -2 2h-12a2 2 0 0 1 -2 -2z" ></path><path d="M9 4v16" ></path><path d="M14 10l2 2l-2 2" ></path></symbol>
<symbol viewBox="0 0 15 15" fill="none" id="link-2">
  <path     fill-rule="evenodd"
    clip-rule="evenodd"
    d="M8.51194 3.00541C9.18829 2.54594 10.0435 2.53694 10.6788 2.95419C10.8231 3.04893 10.9771 3.1993 11.389 3.61119C11.8009 4.02307 11.9513 4.17714 12.046 4.32141C12.4633 4.95675 12.4543 5.81192 11.9948 6.48827C11.8899 6.64264 11.7276 6.80811 11.3006 7.23511L10.6819 7.85383C10.4867 8.04909 10.4867 8.36567 10.6819 8.56093C10.8772 8.7562 11.1938 8.7562 11.389 8.56093L12.0077 7.94221L12.0507 7.89929C12.4203 7.52976 12.6568 7.2933 12.822 7.0502C13.4972 6.05623 13.5321 4.76252 12.8819 3.77248C12.7233 3.53102 12.4922 3.30001 12.1408 2.94871L12.0961 2.90408L12.0515 2.85942C11.7002 2.508 11.4692 2.27689 11.2277 2.11832C10.2377 1.46813 8.94398 1.50299 7.95001 2.17822C7.70691 2.34336 7.47044 2.57991 7.1009 2.94955L7.058 2.99247L6.43928 3.61119C6.24401 3.80645 6.24401 4.12303 6.43928 4.31829C6.63454 4.51355 6.95112 4.51355 7.14638 4.31829L7.7651 3.69957C8.1921 3.27257 8.35757 3.11027 8.51194 3.00541ZM4.31796 7.14672C4.51322 6.95146 4.51322 6.63487 4.31796 6.43961C4.12269 6.24435 3.80611 6.24435 3.61085 6.43961L2.99213 7.05833L2.94922 7.10124C2.57957 7.47077 2.34303 7.70724 2.17788 7.95035C1.50265 8.94432 1.4678 10.238 2.11799 11.2281C2.27656 11.4695 2.50766 11.7005 2.8591 12.0518L2.90374 12.0965L2.94837 12.1411C3.29967 12.4925 3.53068 12.7237 3.77214 12.8822C4.76219 13.5324 6.05589 13.4976 7.04986 12.8223C7.29296 12.6572 7.52943 12.4206 7.89896 12.051L7.89897 12.051L7.94188 12.0081L8.5606 11.3894C8.75586 11.1941 8.75586 10.8775 8.5606 10.6823C8.36533 10.487 8.04875 10.487 7.85349 10.6823L7.23477 11.301C6.80777 11.728 6.6423 11.8903 6.48794 11.9951C5.81158 12.4546 4.95642 12.4636 4.32107 12.0464C4.17681 11.9516 4.02274 11.8012 3.61085 11.3894C3.19896 10.9775 3.0486 10.8234 2.95385 10.6791C2.53661 10.0438 2.54561 9.18863 3.00507 8.51227C3.10993 8.35791 3.27224 8.19244 3.69924 7.76544L4.31796 7.14672ZM9.62172 6.08558C9.81698 5.89032 9.81698 5.57373 9.62172 5.37847C9.42646 5.18321 9.10988 5.18321 8.91461 5.37847L5.37908 8.91401C5.18382 9.10927 5.18382 9.42585 5.37908 9.62111C5.57434 9.81637 5.89092 9.81637 6.08619 9.62111L9.62172 6.08558Z"
    fill="currentColor"
  ></path>
</symbol>
<symbol viewBox="0 0 15 15" fill="none" id="lock-closed">
  <path     fill-rule="evenodd"
    clip-rule="evenodd"
    d="M5 4.63601C5 3.76031 5.24219 3.1054 5.64323 2.67357C6.03934 2.24705 6.64582 1.9783 7.5014 1.9783C8.35745 1.9783 8.96306 2.24652 9.35823 2.67208C9.75838 3.10299 10 3.75708 10 4.63325V5.99999H5V4.63601ZM4 5.99999V4.63601C4 3.58148 4.29339 2.65754 4.91049 1.99307C5.53252 1.32329 6.42675 0.978302 7.5014 0.978302C8.57583 0.978302 9.46952 1.32233 10.091 1.99162C10.7076 2.65557 11 3.57896 11 4.63325V5.99999H12C12.5523 5.99999 13 6.44771 13 6.99999V13C13 13.5523 12.5523 14 12 14H3C2.44772 14 2 13.5523 2 13V6.99999C2 6.44771 2.44772 5.99999 3 5.99999H4ZM3 6.99999H12V13H3V6.99999Z"
    fill="currentColor"
  ></path>
</symbol>
<symbol viewBox="0 0 15 15" fill="none" id="lock-open-1">
  <path     fill-rule="evenodd"
    clip-rule="evenodd"
    d="M7.4986 0C6.3257 0 5.36107 0.38943 4.73753 1.19361C4.23745 1.83856 4 2.68242 4 3.63325H5C5 2.84313 5.19691 2.23312 5.5278 1.80636C5.91615 1.30552 6.55152 1 7.4986 1C8.35683 1 8.96336 1.26502 9.35846 1.68623C9.75793 2.11211 10 2.76044 10 3.63601V6H3C2.44772 6 2 6.44772 2 7V13C2 13.5523 2.44772 14 3 14H12C12.5523 14 13 13.5523 13 13V7C13 6.44771 12.5523 6 12 6H11V3.63601C11 2.58135 10.7065 1.66167 10.0878 1.0021C9.46477 0.337871 8.57061 0 7.4986 0ZM3 7H12V13H3V7Z"
    fill="currentColor"
  ></path>
</symbol>
<symbol viewBox="0 0 24 24" fill="none" stroke="currentColor" stroke-width="2" stroke-linecap="round" stroke-linejoin="round" class="icon icon-tabler icons-tabler-outline icon-tabler-lock-open" id="lock-open"><path stroke="none" d="M0 0h24v24H0z" fill="none"></path><path d="M5 11m0 2a2 2 0 0 1 2 -2h10a2 2 0 0 1 2 2v6a2 2 0 0 1 -2 2h-10a2 2 0 0 1 -2 -2z" ></path><path d="M12 16m-1 0a1 1 0 1 0 2 0a1 1 0 1 0 -2 0" ></path><path d="M8 11v-5a4 4 0 0 1 8 0" ></path></symbol>
<symbol viewBox="0 0 24 24" fill="none" stroke="currentColor" stroke-width="2" stroke-linecap="round" stroke-linejoin="round" class="icon icon-tabler icons-tabler-outline icon-tabler-lock" id="lock"><path stroke="none" d="M0 0h24v24H0z" fill="none"></path><path d="M5 13a2 2 0 0 1 2 -2h10a2 2 0 0 1 2 2v6a2 2 0 0 1 -2 2h-10a2 2 0 0 1 -2 -2v-6z" ></path><path d="M11 16a1 1 0 1 0 2 0a1 1 0 0 0 -2 0" ></path><path d="M8 11v-4a4 4 0 1 1 8 0v4" ></path></symbol>
<symbol viewBox="0 0 24 24" fill="none" stroke="currentColor" stroke-width="2" stroke-linecap="round" stroke-linejoin="round" class="lucide lucide-log-out" id="log-out"><path d="M9 21H5a2 2 0 0 1-2-2V5a2 2 0 0 1 2-2h4"></path><polyline points="16 17 21 12 16 7"></polyline><line x1="21" x2="9" y1="12" y2="12"></line></symbol>
<symbol viewBox="0 0 15 15" fill="none" id="magnifying-glass">
  <path     fill-rule="evenodd"
    clip-rule="evenodd"
    d="M10 6.5C10 8.433 8.433 10 6.5 10C4.567 10 3 8.433 3 6.5C3 4.567 4.567 3 6.5 3C8.433 3 10 4.567 10 6.5ZM9.30884 10.0159C8.53901 10.6318 7.56251 11 6.5 11C4.01472 11 2 8.98528 2 6.5C2 4.01472 4.01472 2 6.5 2C8.98528 2 11 4.01472 11 6.5C11 7.56251 10.6318 8.53901 10.0159 9.30884L12.8536 12.1464C13.0488 12.3417 13.0488 12.6583 12.8536 12.8536C12.6583 13.0488 12.3417 13.0488 12.1464 12.8536L9.30884 10.0159Z"
    fill="currentColor"
  ></path>
</symbol>
<symbol class="icon icon-tabler icon-tabler-map-pin-filled" viewBox="0 0 24 24" stroke-width="2" stroke="currentColor" fill="none" stroke-linecap="round" stroke-linejoin="round" id="map-pin-filled"><path stroke="none" d="M0 0h24v24H0z" fill="none"></path><path d="M18.364 4.636a9 9 0 0 1 .203 12.519l-.203 .21l-4.243 4.242a3 3 0 0 1 -4.097 .135l-.144 -.135l-4.244 -4.243a9 9 0 0 1 12.728 -12.728zm-6.364 3.364a3 3 0 1 0 0 6a3 3 0 0 0 0 -6z" stroke-width="0" fill="currentColor" ></path></symbol>
<symbol class="icon icon-tabler icon-tabler-map" viewBox="0 0 24 24" stroke-width="2" stroke="currentColor" fill="none" stroke-linecap="round" stroke-linejoin="round" id="map"><path stroke="none" d="M0 0h24v24H0z" fill="none"></path><path d="M3 7l6 -3l6 3l6 -3v13l-6 3l-6 -3l-6 3v-13" ></path><path d="M9 4v13" ></path><path d="M15 7v13" ></path></symbol>
<symbol viewBox="0 0 24 24" fill="none" stroke="currentColor" stroke-width="2" stroke-linecap="round" stroke-linejoin="round" class="icon icon-tabler icons-tabler-outline icon-tabler-medal" id="medal"><path stroke="none" d="M0 0h24v24H0z" fill="none"></path><path d="M12 4v3m-4 -3v6m8 -6v6" ></path><path d="M12 18.5l-3 1.5l.5 -3.5l-2 -2l3 -.5l1.5 -3l1.5 3l3 .5l-2 2l.5 3.5z" ></path></symbol>
<symbol viewBox="0 0 24 24" fill="none" stroke="currentColor" stroke-width="2" stroke-linecap="round" stroke-linejoin="round" class="icon icon-tabler icons-tabler-outline icon-tabler-menu-2" id="menu-2"><path stroke="none" d="M0 0h24v24H0z" fill="none"></path><path d="M4 6l16 0" ></path><path d="M4 12l16 0" ></path><path d="M4 18l16 0" ></path></symbol>
<symbol class="icon icon-tabler icon-tabler-minus" viewBox="0 0 24 24" stroke-width="2" stroke="currentColor" fill="none" stroke-linecap="round" stroke-linejoin="round" id="minus"><path stroke="none" d="M0 0h24v24H0z" fill="none"></path><path d="M5 12l14 0" ></path></symbol>
<symbol viewBox="0 0 24 24" fill="none" stroke="currentColor" stroke-width="2" stroke-linecap="round" stroke-linejoin="round" class="icon icon-tabler icons-tabler-outline icon-tabler-moneybag" id="moneybag"><path stroke="none" d="M0 0h24v24H0z" fill="none"></path><path d="M9.5 3h5a1.5 1.5 0 0 1 1.5 1.5a3.5 3.5 0 0 1 -3.5 3.5h-1a3.5 3.5 0 0 1 -3.5 -3.5a1.5 1.5 0 0 1 1.5 -1.5z" ></path><path d="M4 17v-1a8 8 0 1 1 16 0v1a4 4 0 0 1 -4 4h-8a4 4 0 0 1 -4 -4z" ></path></symbol>
<symbol viewBox="0 0 15 15" fill="none" id="moon">
  <path     fill-rule="evenodd"
    clip-rule="evenodd"
    d="M2.89998 0.499976C2.89998 0.279062 2.72089 0.0999756 2.49998 0.0999756C2.27906 0.0999756 2.09998 0.279062 2.09998 0.499976V1.09998H1.49998C1.27906 1.09998 1.09998 1.27906 1.09998 1.49998C1.09998 1.72089 1.27906 1.89998 1.49998 1.89998H2.09998V2.49998C2.09998 2.72089 2.27906 2.89998 2.49998 2.89998C2.72089 2.89998 2.89998 2.72089 2.89998 2.49998V1.89998H3.49998C3.72089 1.89998 3.89998 1.72089 3.89998 1.49998C3.89998 1.27906 3.72089 1.09998 3.49998 1.09998H2.89998V0.499976ZM5.89998 3.49998C5.89998 3.27906 5.72089 3.09998 5.49998 3.09998C5.27906 3.09998 5.09998 3.27906 5.09998 3.49998V4.09998H4.49998C4.27906 4.09998 4.09998 4.27906 4.09998 4.49998C4.09998 4.72089 4.27906 4.89998 4.49998 4.89998H5.09998V5.49998C5.09998 5.72089 5.27906 5.89998 5.49998 5.89998C5.72089 5.89998 5.89998 5.72089 5.89998 5.49998V4.89998H6.49998C6.72089 4.89998 6.89998 4.72089 6.89998 4.49998C6.89998 4.27906 6.72089 4.09998 6.49998 4.09998H5.89998V3.49998ZM1.89998 6.49998C1.89998 6.27906 1.72089 6.09998 1.49998 6.09998C1.27906 6.09998 1.09998 6.27906 1.09998 6.49998V7.09998H0.499976C0.279062 7.09998 0.0999756 7.27906 0.0999756 7.49998C0.0999756 7.72089 0.279062 7.89998 0.499976 7.89998H1.09998V8.49998C1.09998 8.72089 1.27906 8.89997 1.49998 8.89997C1.72089 8.89997 1.89998 8.72089 1.89998 8.49998V7.89998H2.49998C2.72089 7.89998 2.89998 7.72089 2.89998 7.49998C2.89998 7.27906 2.72089 7.09998 2.49998 7.09998H1.89998V6.49998ZM8.54406 0.98184L8.24618 0.941586C8.03275 0.917676 7.90692 1.1655 8.02936 1.34194C8.17013 1.54479 8.29981 1.75592 8.41754 1.97445C8.91878 2.90485 9.20322 3.96932 9.20322 5.10022C9.20322 8.37201 6.82247 11.0878 3.69887 11.6097C3.45736 11.65 3.20988 11.6772 2.96008 11.6906C2.74563 11.702 2.62729 11.9535 2.77721 12.1072C2.84551 12.1773 2.91535 12.2458 2.98667 12.3128L3.05883 12.3795L3.31883 12.6045L3.50684 12.7532L3.62796 12.8433L3.81491 12.9742L3.99079 13.089C4.11175 13.1651 4.23536 13.2375 4.36157 13.3059L4.62496 13.4412L4.88553 13.5607L5.18837 13.6828L5.43169 13.7686C5.56564 13.8128 5.70149 13.8529 5.83857 13.8885C5.94262 13.9155 6.04767 13.9401 6.15405 13.9622C6.27993 13.9883 6.40713 14.0109 6.53544 14.0298L6.85241 14.0685L7.11934 14.0892C7.24637 14.0965 7.37436 14.1002 7.50322 14.1002C11.1483 14.1002 14.1032 11.1453 14.1032 7.50023C14.1032 7.25044 14.0893 7.00389 14.0623 6.76131L14.0255 6.48407C13.991 6.26083 13.9453 6.04129 13.8891 5.82642C13.8213 5.56709 13.7382 5.31398 13.6409 5.06881L13.5279 4.80132L13.4507 4.63542L13.3766 4.48666C13.2178 4.17773 13.0353 3.88295 12.8312 3.60423L12.6782 3.40352L12.4793 3.16432L12.3157 2.98361L12.1961 2.85951L12.0355 2.70246L11.8134 2.50184L11.4925 2.24191L11.2483 2.06498L10.9562 1.87446L10.6346 1.68894L10.3073 1.52378L10.1938 1.47176L9.95488 1.3706L9.67791 1.2669L9.42566 1.1846L9.10075 1.09489L8.83599 1.03486L8.54406 0.98184ZM10.4032 5.30023C10.4032 4.27588 10.2002 3.29829 9.83244 2.40604C11.7623 3.28995 13.1032 5.23862 13.1032 7.50023C13.1032 10.593 10.596 13.1002 7.50322 13.1002C6.63646 13.1002 5.81597 12.9036 5.08355 12.5522C6.5419 12.0941 7.81081 11.2082 8.74322 10.0416C8.87963 10.2284 9.10028 10.3497 9.34928 10.3497C9.76349 10.3497 10.0993 10.0139 10.0993 9.59971C10.0993 9.24256 9.84965 8.94373 9.51535 8.86816C9.57741 8.75165 9.63653 8.63334 9.6926 8.51332C9.88358 8.63163 10.1088 8.69993 10.35 8.69993C11.0403 8.69993 11.6 8.14028 11.6 7.44993C11.6 6.75976 11.0406 6.20024 10.3505 6.19993C10.3853 5.90487 10.4032 5.60464 10.4032 5.30023Z"
    fill="currentColor"
  ></path>
</symbol>
<symbol viewBox="0 0 24 24" fill="none" stroke="currentColor" stroke-width="2" stroke-linecap="round" stroke-linejoin="round" class="lucide lucide-more-horizontal" id="more-horizontal"><circle cx="12" cy="12" r="1"></circle><circle cx="19" cy="12" r="1"></circle><circle cx="5" cy="12" r="1"></circle></symbol>
<symbol viewBox="0 0 24 24" fill="none" stroke="currentColor" stroke-width="2" stroke-linecap="round" stroke-linejoin="round" class="icon icon-tabler icons-tabler-outline icon-tabler-package-off" id="package-off"><path stroke="none" d="M0 0h24v24H0z" fill="none"></path><path d="M8.812 4.793l3.188 -1.793l8 4.5v8.5m-2.282 1.784l-5.718 3.216l-8 -4.5v-9l2.223 -1.25" ></path><path d="M14.543 10.57l5.457 -3.07" ></path><path d="M12 12v9" ></path><path d="M12 12l-8 -4.5" ></path><path d="M16 5.25l-4.35 2.447m-2.564 1.442l-1.086 .611" ></path><path d="M3 3l18 18" ></path></symbol>
<symbol viewBox="0 0 24 24" fill="none" stroke="currentColor" stroke-width="2" stroke-linecap="round" stroke-linejoin="round" class="lucide lucide-package" id="package"><path d="m7.5 4.27 9 5.15"></path><path d="M21 8a2 2 0 0 0-1-1.73l-7-4a2 2 0 0 0-2 0l-7 4A2 2 0 0 0 3 8v8a2 2 0 0 0 1 1.73l7 4a2 2 0 0 0 2 0l7-4A2 2 0 0 0 21 16Z"></path><path d="m3.3 7 8.7 5 8.7-5"></path><path d="M12 22V12"></path></symbol>
<symbol viewBox="0 0 24 24" fill="none" stroke="currentColor" stroke-width="2" stroke-linecap="round" stroke-linejoin="round" class="lucide lucide-panels-top-left" id="panels-top-left"><rect width="18" height="18" x="3" y="3" rx="2"></rect><path d="M3 9h18"></path><path d="M9 21V9"></path></symbol>
<symbol viewBox="0 0 24 24" fill="none" stroke="currentColor" stroke-width="2" stroke-linecap="round" stroke-linejoin="round" class="icon icon-tabler icons-tabler-outline icon-tabler-password" id="password"><path stroke="none" d="M0 0h24v24H0z" fill="none"></path><path d="M12 10v4" ></path><path d="M10 13l4 -2" ></path><path d="M10 11l4 2" ></path><path d="M5 10v4" ></path><path d="M3 13l4 -2" ></path><path d="M3 11l4 2" ></path><path d="M19 10v4" ></path><path d="M17 13l4 -2" ></path><path d="M17 11l4 2" ></path></symbol>
<symbol viewBox="0 0 15 15" fill="none" id="pencil-1">
  <path     fill-rule="evenodd"
    clip-rule="evenodd"
    d="M11.8536 1.14645C11.6583 0.951184 11.3417 0.951184 11.1465 1.14645L3.71455 8.57836C3.62459 8.66832 3.55263 8.77461 3.50251 8.89155L2.04044 12.303C1.9599 12.491 2.00189 12.709 2.14646 12.8536C2.29103 12.9981 2.50905 13.0401 2.69697 12.9596L6.10847 11.4975C6.2254 11.4474 6.3317 11.3754 6.42166 11.2855L13.8536 3.85355C14.0488 3.65829 14.0488 3.34171 13.8536 3.14645L11.8536 1.14645ZM4.42166 9.28547L11.5 2.20711L12.7929 3.5L5.71455 10.5784L4.21924 11.2192L3.78081 10.7808L4.42166 9.28547Z"
    fill="currentColor"
  ></path>
</symbol>
<symbol viewBox="0 0 15 15" fill="none" id="pencil-2">
  <path     fill-rule="evenodd"
    clip-rule="evenodd"
    d="M12.1464 1.14645C12.3417 0.951184 12.6583 0.951184 12.8535 1.14645L14.8535 3.14645C15.0488 3.34171 15.0488 3.65829 14.8535 3.85355L10.9109 7.79618C10.8349 7.87218 10.7471 7.93543 10.651 7.9835L6.72359 9.94721C6.53109 10.0435 6.29861 10.0057 6.14643 9.85355C5.99425 9.70137 5.95652 9.46889 6.05277 9.27639L8.01648 5.34897C8.06455 5.25283 8.1278 5.16507 8.2038 5.08907L12.1464 1.14645ZM12.5 2.20711L8.91091 5.79618L7.87266 7.87267L8.12731 8.12732L10.2038 7.08907L13.7929 3.5L12.5 2.20711ZM9.99998 2L8.99998 3H4.9C4.47171 3 4.18056 3.00039 3.95552 3.01877C3.73631 3.03668 3.62421 3.06915 3.54601 3.10899C3.35785 3.20487 3.20487 3.35785 3.10899 3.54601C3.06915 3.62421 3.03669 3.73631 3.01878 3.95552C3.00039 4.18056 3 4.47171 3 4.9V11.1C3 11.5283 3.00039 11.8194 3.01878 12.0445C3.03669 12.2637 3.06915 12.3758 3.10899 12.454C3.20487 12.6422 3.35785 12.7951 3.54601 12.891C3.62421 12.9309 3.73631 12.9633 3.95552 12.9812C4.18056 12.9996 4.47171 13 4.9 13H11.1C11.5283 13 11.8194 12.9996 12.0445 12.9812C12.2637 12.9633 12.3758 12.9309 12.454 12.891C12.6422 12.7951 12.7951 12.6422 12.891 12.454C12.9309 12.3758 12.9633 12.2637 12.9812 12.0445C12.9996 11.8194 13 11.5283 13 11.1V6.99998L14 5.99998V11.1V11.1207C14 11.5231 14 11.8553 13.9779 12.1259C13.9549 12.407 13.9057 12.6653 13.782 12.908C13.5903 13.2843 13.2843 13.5903 12.908 13.782C12.6653 13.9057 12.407 13.9549 12.1259 13.9779C11.8553 14 11.5231 14 11.1207 14H11.1H4.9H4.87934C4.47686 14 4.14468 14 3.87409 13.9779C3.59304 13.9549 3.33469 13.9057 3.09202 13.782C2.7157 13.5903 2.40973 13.2843 2.21799 12.908C2.09434 12.6653 2.04506 12.407 2.0221 12.1259C1.99999 11.8553 1.99999 11.5231 2 11.1207V11.1206V11.1V4.9V4.87935V4.87932V4.87931C1.99999 4.47685 1.99999 4.14468 2.0221 3.87409C2.04506 3.59304 2.09434 3.33469 2.21799 3.09202C2.40973 2.71569 2.7157 2.40973 3.09202 2.21799C3.33469 2.09434 3.59304 2.04506 3.87409 2.0221C4.14468 1.99999 4.47685 1.99999 4.87932 2H4.87935H4.9H9.99998Z"
    fill="currentColor"
  ></path>
</symbol>
<symbol class="icon icon-tabler icon-tabler-percentage" viewBox="0 0 24 24" stroke-width="2" stroke="currentColor" fill="none" stroke-linecap="round" stroke-linejoin="round" id="percentage"><path stroke="none" d="M0 0h24v24H0z" fill="none"></path><path d="M17 17m-1 0a1 1 0 1 0 2 0a1 1 0 1 0 -2 0" ></path><path d="M7 7m-1 0a1 1 0 1 0 2 0a1 1 0 1 0 -2 0" ></path><path d="M6 18l12 -12" ></path></symbol>
<symbol class="icon icon-tabler icon-tabler-phone" viewBox="0 0 24 24" stroke-width="2" stroke="currentColor" fill="none" stroke-linecap="round" stroke-linejoin="round" id="phone"><path stroke="none" d="M0 0h24v24H0z" fill="none"></path><path d="M5 4h4l2 5l-2.5 1.5a11 11 0 0 0 5 5l1.5 -2.5l5 2v4a2 2 0 0 1 -2 2a16 16 0 0 1 -15 -15a2 2 0 0 1 2 -2" ></path></symbol>
<symbol viewBox="0 0 15 15" fill="none" id="plus">
  <path     fill-rule="evenodd"
    clip-rule="evenodd"
    d="M8 2.75C8 2.47386 7.77614 2.25 7.5 2.25C7.22386 2.25 7 2.47386 7 2.75V7H2.75C2.47386 7 2.25 7.22386 2.25 7.5C2.25 7.77614 2.47386 8 2.75 8H7V12.25C7 12.5261 7.22386 12.75 7.5 12.75C7.77614 12.75 8 12.5261 8 12.25V8H12.25C12.5261 8 12.75 7.77614 12.75 7.5C12.75 7.22386 12.5261 7 12.25 7H8V2.75Z"
    fill="currentColor"
  ></path>
</symbol>
<symbol viewBox="0 0 24 24" fill="none" stroke="currentColor" stroke-width="2" stroke-linecap="round" stroke-linejoin="round" class="icon icon-tabler icons-tabler-outline icon-tabler-point" id="point"><path stroke="none" d="M0 0h24v24H0z" fill="none"></path><path d="M12 12m-4 0a4 4 0 1 0 8 0a4 4 0 1 0 -8 0" ></path></symbol>
<symbol viewBox="0 0 24 24" fill="none" stroke="currentColor" stroke-width="2" stroke-linecap="round" stroke-linejoin="round" class="icon icon-tabler icons-tabler-outline icon-tabler-printer" id="printer"><path stroke="none" d="M0 0h24v24H0z" fill="none"></path><path d="M17 17h2a2 2 0 0 0 2 -2v-4a2 2 0 0 0 -2 -2h-14a2 2 0 0 0 -2 2v4a2 2 0 0 0 2 2h2" ></path><path d="M17 9v-4a2 2 0 0 0 -2 -2h-6a2 2 0 0 0 -2 2v4" ></path><path d="M7 13m0 2a2 2 0 0 1 2 -2h6a2 2 0 0 1 2 2v4a2 2 0 0 1 -2 2h-6a2 2 0 0 1 -2 -2z" ></path></symbol>
<symbol viewBox="0 0 24 24" fill="none" stroke="currentColor" stroke-width="2" stroke-linecap="round" stroke-linejoin="round" class="icon icon-tabler icons-tabler-outline icon-tabler-qrcode" id="qrcode"><path stroke="none" d="M0 0h24v24H0z" fill="none"></path><path d="M4 4m0 1a1 1 0 0 1 1 -1h4a1 1 0 0 1 1 1v4a1 1 0 0 1 -1 1h-4a1 1 0 0 1 -1 -1z" ></path><path d="M7 17l0 .01" ></path><path d="M14 4m0 1a1 1 0 0 1 1 -1h4a1 1 0 0 1 1 1v4a1 1 0 0 1 -1 1h-4a1 1 0 0 1 -1 -1z" ></path><path d="M7 7l0 .01" ></path><path d="M4 14m0 1a1 1 0 0 1 1 -1h4a1 1 0 0 1 1 1v4a1 1 0 0 1 -1 1h-4a1 1 0 0 1 -1 -1z" ></path><path d="M17 7l0 .01" ></path><path d="M14 14l3 0" ></path><path d="M20 14l0 .01" ></path><path d="M14 14l0 3" ></path><path d="M14 20l3 0" ></path><path d="M17 17l3 0" ></path><path d="M20 17l0 3" ></path></symbol>
<symbol viewBox="0 0 15 15" fill="none" id="question-mark-circled">
  <path     fill-rule="evenodd"
    clip-rule="evenodd"
    d="M0.877075 7.49972C0.877075 3.84204 3.84222 0.876892 7.49991 0.876892C11.1576 0.876892 14.1227 3.84204 14.1227 7.49972C14.1227 11.1574 11.1576 14.1226 7.49991 14.1226C3.84222 14.1226 0.877075 11.1574 0.877075 7.49972ZM7.49991 1.82689C4.36689 1.82689 1.82708 4.36671 1.82708 7.49972C1.82708 10.6327 4.36689 13.1726 7.49991 13.1726C10.6329 13.1726 13.1727 10.6327 13.1727 7.49972C13.1727 4.36671 10.6329 1.82689 7.49991 1.82689ZM8.24993 10.5C8.24993 10.9142 7.91414 11.25 7.49993 11.25C7.08571 11.25 6.74993 10.9142 6.74993 10.5C6.74993 10.0858 7.08571 9.75 7.49993 9.75C7.91414 9.75 8.24993 10.0858 8.24993 10.5ZM6.05003 6.25C6.05003 5.57211 6.63511 4.925 7.50003 4.925C8.36496 4.925 8.95003 5.57211 8.95003 6.25C8.95003 6.74118 8.68002 6.99212 8.21447 7.27494C8.16251 7.30651 8.10258 7.34131 8.03847 7.37854L8.03841 7.37858C7.85521 7.48497 7.63788 7.61119 7.47449 7.73849C7.23214 7.92732 6.95003 8.23198 6.95003 8.7C6.95004 9.00376 7.19628 9.25 7.50004 9.25C7.8024 9.25 8.04778 9.00601 8.05002 8.70417L8.05056 8.7033C8.05924 8.6896 8.08493 8.65735 8.15058 8.6062C8.25207 8.52712 8.36508 8.46163 8.51567 8.37436L8.51571 8.37433C8.59422 8.32883 8.68296 8.27741 8.78559 8.21506C9.32004 7.89038 10.05 7.35382 10.05 6.25C10.05 4.92789 8.93511 3.825 7.50003 3.825C6.06496 3.825 4.95003 4.92789 4.95003 6.25C4.95003 6.55376 5.19628 6.8 5.50003 6.8C5.80379 6.8 6.05003 6.55376 6.05003 6.25Z"
    fill="currentColor"
  ></path>
</symbol>
<symbol class="icon icon-tabler icon-tabler-report-money" viewBox="0 0 24 24" stroke-width="2" stroke="currentColor" fill="none" stroke-linecap="round" stroke-linejoin="round" id="report-money"><path stroke="none" d="M0 0h24v24H0z" fill="none"></path><path d="M9 5h-2a2 2 0 0 0 -2 2v12a2 2 0 0 0 2 2h10a2 2 0 0 0 2 -2v-12a2 2 0 0 0 -2 -2h-2" ></path><path d="M9 3m0 2a2 2 0 0 1 2 -2h2a2 2 0 0 1 2 2v0a2 2 0 0 1 -2 2h-2a2 2 0 0 1 -2 -2z" ></path><path d="M14 11h-2.5a1.5 1.5 0 0 0 0 3h1a1.5 1.5 0 0 1 0 3h-2.5" ></path><path d="M12 17v1m0 -8v1" ></path></symbol>
<symbol viewBox="0 0 15 15" fill="none" id="reset">
  <path     fill-rule="evenodd"
    clip-rule="evenodd"
    d="M4.85355 2.14645C5.04882 2.34171 5.04882 2.65829 4.85355 2.85355L3.70711 4H9C11.4853 4 13.5 6.01472 13.5 8.5C13.5 10.9853 11.4853 13 9 13H5C4.72386 13 4.5 12.7761 4.5 12.5C4.5 12.2239 4.72386 12 5 12H9C10.933 12 12.5 10.433 12.5 8.5C12.5 6.567 10.933 5 9 5H3.70711L4.85355 6.14645C5.04882 6.34171 5.04882 6.65829 4.85355 6.85355C4.65829 7.04882 4.34171 7.04882 4.14645 6.85355L2.14645 4.85355C1.95118 4.65829 1.95118 4.34171 2.14645 4.14645L4.14645 2.14645C4.34171 1.95118 4.65829 1.95118 4.85355 2.14645Z"
    fill="currentColor"
  ></path>
</symbol>
<symbol viewBox="0 0 24 24" fill="none" stroke="currentColor" stroke-width="2" stroke-linecap="round" stroke-linejoin="round" class="lucide lucide-route" id="route"><circle cx="6" cy="19" r="3"></circle><path d="M9 19h8.5a3.5 3.5 0 0 0 0-7h-11a3.5 3.5 0 0 1 0-7H15"></path><circle cx="18" cy="5" r="3"></circle></symbol>
<symbol viewBox="0 0 24 24" fill="none" stroke="currentColor" stroke-width="2" stroke-linecap="round" stroke-linejoin="round" class="lucide lucide-scan-barcode" id="scan-barcode"><path d="M3 7V5a2 2 0 0 1 2-2h2"></path><path d="M17 3h2a2 2 0 0 1 2 2v2"></path><path d="M21 17v2a2 2 0 0 1-2 2h-2"></path><path d="M7 21H5a2 2 0 0 1-2-2v-2"></path><path d="M8 7v10"></path><path d="M12 7v10"></path><path d="M17 7v10"></path></symbol>
<symbol viewBox="0 0 24 24" fill="none" stroke="currentColor" stroke-width="2" stroke-linecap="round" stroke-linejoin="round" class="icon icon-tabler icons-tabler-outline icon-tabler-scan" id="scan"><path stroke="none" d="M0 0h24v24H0z" fill="none"></path><path d="M4 7v-1a2 2 0 0 1 2 -2h2" ></path><path d="M4 17v1a2 2 0 0 0 2 2h2" ></path><path d="M16 4h2a2 2 0 0 1 2 2v1" ></path><path d="M16 20h2a2 2 0 0 0 2 -2v-1" ></path><path d="M5 12l14 0" ></path></symbol>
<symbol viewBox="0 0 24 24" fill="none" stroke="currentColor" stroke-width="2" stroke-linecap="round" stroke-linejoin="round" class="lucide lucide-settings" id="settings"><path d="M12.22 2h-.44a2 2 0 0 0-2 2v.18a2 2 0 0 1-1 1.73l-.43.25a2 2 0 0 1-2 0l-.15-.08a2 2 0 0 0-2.73.73l-.22.38a2 2 0 0 0 .73 2.73l.15.1a2 2 0 0 1 1 1.72v.51a2 2 0 0 1-1 1.74l-.15.09a2 2 0 0 0-.73 2.73l.22.38a2 2 0 0 0 2.73.73l.15-.08a2 2 0 0 1 2 0l.43.25a2 2 0 0 1 1 1.73V20a2 2 0 0 0 2 2h.44a2 2 0 0 0 2-2v-.18a2 2 0 0 1 1-1.73l.43-.25a2 2 0 0 1 2 0l.15.08a2 2 0 0 0 2.73-.73l.22-.39a2 2 0 0 0-.73-2.73l-.15-.08a2 2 0 0 1-1-1.74v-.5a2 2 0 0 1 1-1.74l.15-.09a2 2 0 0 0 .73-2.73l-.22-.38a2 2 0 0 0-2.73-.73l-.15.08a2 2 0 0 1-2 0l-.43-.25a2 2 0 0 1-1-1.73V4a2 2 0 0 0-2-2z"></path><circle cx="12" cy="12" r="3"></circle></symbol>
<symbol viewBox="0 0 24 24" fill="none" stroke="currentColor" stroke-width="2" stroke-linecap="round" stroke-linejoin="round" class="lucide lucide-shapes" id="shapes"><path d="M8.3 10a.7.7 0 0 1-.626-1.079L11.4 3a.7.7 0 0 1 1.198-.043L16.3 8.9a.7.7 0 0 1-.572 1.1Z"></path><rect x="3" y="14" width="7" height="7" rx="1"></rect><circle cx="17.5" cy="17.5" r="3.5"></circle></symbol>
<symbol viewBox="0 0 24 24" fill="none" stroke="currentColor" stroke-width="2" stroke-linecap="round" stroke-linejoin="round" class="icon icon-tabler icons-tabler-outline icon-tabler-shopping-bag" id="shopping-bag"><path stroke="none" d="M0 0h24v24H0z" fill="none"></path><path d="M6.331 8h11.339a2 2 0 0 1 1.977 2.304l-1.255 8.152a3 3 0 0 1 -2.966 2.544h-6.852a3 3 0 0 1 -2.965 -2.544l-1.255 -8.152a2 2 0 0 1 1.977 -2.304z" ></path><path d="M9 11v-5a3 3 0 0 1 6 0v5" ></path></symbol>
<symbol viewBox="0 0 24 24" fill="none" stroke="currentColor" stroke-width="2" stroke-linecap="round" stroke-linejoin="round" class="lucide lucide-square-pen" id="square-pen"><path d="M12 3H5a2 2 0 0 0-2 2v14a2 2 0 0 0 2 2h14a2 2 0 0 0 2-2v-7"></path><path d="M18.375 2.625a1 1 0 0 1 3 3l-9.013 9.014a2 2 0 0 1-.853.505l-2.873.84a.5.5 0 0 1-.62-.62l.84-2.873a2 2 0 0 1 .506-.852z"></path></symbol>
<symbol viewBox="0 0 24 24" fill="currentColor" class="icon icon-tabler icons-tabler-filled icon-tabler-square-rounded-check" id="square-rounded-check"><path stroke="none" d="M0 0h24v24H0z" fill="none"></path><path d="M12 2c-.218 0 -.432 .002 -.642 .005l-.616 .017l-.299 .013l-.579 .034l-.553 .046c-4.785 .464 -6.732 2.411 -7.196 7.196l-.046 .553l-.034 .579c-.005 .098 -.01 .198 -.013 .299l-.017 .616l-.004 .318l-.001 .324c0 .218 .002 .432 .005 .642l.017 .616l.013 .299l.034 .579l.046 .553c.464 4.785 2.411 6.732 7.196 7.196l.553 .046l.579 .034c.098 .005 .198 .01 .299 .013l.616 .017l.642 .005l.642 -.005l.616 -.017l.299 -.013l.579 -.034l.553 -.046c4.785 -.464 6.732 -2.411 7.196 -7.196l.046 -.553l.034 -.579c.005 -.098 .01 -.198 .013 -.299l.017 -.616l.005 -.642l-.005 -.642l-.017 -.616l-.013 -.299l-.034 -.579l-.046 -.553c-.464 -4.785 -2.411 -6.732 -7.196 -7.196l-.553 -.046l-.579 -.034a28.058 28.058 0 0 0 -.299 -.013l-.616 -.017l-.318 -.004l-.324 -.001zm2.293 7.293a1 1 0 0 1 1.497 1.32l-.083 .094l-4 4a1 1 0 0 1 -1.32 .083l-.094 -.083l-2 -2a1 1 0 0 1 1.32 -1.497l.094 .083l1.293 1.292l3.293 -3.292z" fill="currentColor" stroke-width="0" ></path></symbol>
<symbol viewBox="0 0 24 24" fill="currentColor" class="icon icon-tabler icons-tabler-filled icon-tabler-star" id="star"><path stroke="none" d="M0 0h24v24H0z" fill="none"></path><path d="M8.243 7.34l-6.38 .925l-.113 .023a1 1 0 0 0 -.44 1.684l4.622 4.499l-1.09 6.355l-.013 .11a1 1 0 0 0 1.464 .944l5.706 -3l5.693 3l.1 .046a1 1 0 0 0 1.352 -1.1l-1.091 -6.355l4.624 -4.5l.078 -.085a1 1 0 0 0 -.633 -1.62l-6.38 -.926l-2.852 -5.78a1 1 0 0 0 -1.794 0l-2.853 5.78z" ></path></symbol>
<symbol viewBox="0 0 15 15" fill="none" id="sun">
  <path     fill-rule="evenodd"
    clip-rule="evenodd"
    d="M7.5 0C7.77614 0 8 0.223858 8 0.5V2.5C8 2.77614 7.77614 3 7.5 3C7.22386 3 7 2.77614 7 2.5V0.5C7 0.223858 7.22386 0 7.5 0ZM2.1967 2.1967C2.39196 2.00144 2.70854 2.00144 2.90381 2.1967L4.31802 3.61091C4.51328 3.80617 4.51328 4.12276 4.31802 4.31802C4.12276 4.51328 3.80617 4.51328 3.61091 4.31802L2.1967 2.90381C2.00144 2.70854 2.00144 2.39196 2.1967 2.1967ZM0.5 7C0.223858 7 0 7.22386 0 7.5C0 7.77614 0.223858 8 0.5 8H2.5C2.77614 8 3 7.77614 3 7.5C3 7.22386 2.77614 7 2.5 7H0.5ZM2.1967 12.8033C2.00144 12.608 2.00144 12.2915 2.1967 12.0962L3.61091 10.682C3.80617 10.4867 4.12276 10.4867 4.31802 10.682C4.51328 10.8772 4.51328 11.1938 4.31802 11.3891L2.90381 12.8033C2.70854 12.9986 2.39196 12.9986 2.1967 12.8033ZM12.5 7C12.2239 7 12 7.22386 12 7.5C12 7.77614 12.2239 8 12.5 8H14.5C14.7761 8 15 7.77614 15 7.5C15 7.22386 14.7761 7 14.5 7H12.5ZM10.682 4.31802C10.4867 4.12276 10.4867 3.80617 10.682 3.61091L12.0962 2.1967C12.2915 2.00144 12.608 2.00144 12.8033 2.1967C12.9986 2.39196 12.9986 2.70854 12.8033 2.90381L11.3891 4.31802C11.1938 4.51328 10.8772 4.51328 10.682 4.31802ZM8 12.5C8 12.2239 7.77614 12 7.5 12C7.22386 12 7 12.2239 7 12.5V14.5C7 14.7761 7.22386 15 7.5 15C7.77614 15 8 14.7761 8 14.5V12.5ZM10.682 10.682C10.8772 10.4867 11.1938 10.4867 11.3891 10.682L12.8033 12.0962C12.9986 12.2915 12.9986 12.608 12.8033 12.8033C12.608 12.9986 12.2915 12.9986 12.0962 12.8033L10.682 11.3891C10.4867 11.1938 10.4867 10.8772 10.682 10.682ZM5.5 7.5C5.5 6.39543 6.39543 5.5 7.5 5.5C8.60457 5.5 9.5 6.39543 9.5 7.5C9.5 8.60457 8.60457 9.5 7.5 9.5C6.39543 9.5 5.5 8.60457 5.5 7.5ZM7.5 4.5C5.84315 4.5 4.5 5.84315 4.5 7.5C4.5 9.15685 5.84315 10.5 7.5 10.5C9.15685 10.5 10.5 9.15685 10.5 7.5C10.5 5.84315 9.15685 4.5 7.5 4.5Z"
    fill="currentColor"
  ></path>
</symbol>
<symbol viewBox="0 0 24 24" fill="none" stroke="currentColor" stroke-width="2" stroke-linecap="round" stroke-linejoin="round" class="icon icon-tabler icons-tabler-outline icon-tabler-table" id="table"><path stroke="none" d="M0 0h24v24H0z" fill="none"></path><path d="M3 5a2 2 0 0 1 2 -2h14a2 2 0 0 1 2 2v14a2 2 0 0 1 -2 2h-14a2 2 0 0 1 -2 -2v-14z" ></path><path d="M3 10h18" ></path><path d="M10 3v18" ></path></symbol>
<symbol viewBox="0 0 24 24" fill="none" stroke="currentColor" stroke-width="2" stroke-linecap="round" stroke-linejoin="round" class="lucide lucide-tag" id="tag"><path d="M12.586 2.586A2 2 0 0 0 11.172 2H4a2 2 0 0 0-2 2v7.172a2 2 0 0 0 .586 1.414l8.704 8.704a2.426 2.426 0 0 0 3.42 0l6.58-6.58a2.426 2.426 0 0 0 0-3.42z"></path><circle cx="7.5" cy="7.5" r=".5" fill="currentColor"></circle></symbol>
<symbol class="icon icon-tabler icon-tabler-transfer" viewBox="0 0 24 24" stroke-width="2" stroke="currentColor" fill="none" stroke-linecap="round" stroke-linejoin="round" id="transfer"><path stroke="none" d="M0 0h24v24H0z" fill="none"></path><path d="M20 10h-16l5.5 -6" ></path><path d="M4 14h16l-5.5 6" ></path></symbol>
<symbol viewBox="0 0 15 15" fill="none" id="trash">
  <path     fill-rule="evenodd"
    clip-rule="evenodd"
    d="M5.5 1C5.22386 1 5 1.22386 5 1.5C5 1.77614 5.22386 2 5.5 2H9.5C9.77614 2 10 1.77614 10 1.5C10 1.22386 9.77614 1 9.5 1H5.5ZM3 3.5C3 3.22386 3.22386 3 3.5 3H5H10H11.5C11.7761 3 12 3.22386 12 3.5C12 3.77614 11.7761 4 11.5 4H11V12C11 12.5523 10.5523 13 10 13H5C4.44772 13 4 12.5523 4 12V4L3.5 4C3.22386 4 3 3.77614 3 3.5ZM5 4H10V12H5V4Z"
    fill="currentColor"
  ></path>
</symbol>
<symbol viewBox="0 0 24 24" fill="none" stroke="currentColor" stroke-width="2" stroke-linecap="round" stroke-linejoin="round" class="icon icon-tabler icons-tabler-outline icon-tabler-trending-down" id="trending-down"><path stroke="none" d="M0 0h24v24H0z" fill="none"></path><path d="M3 7l6 6l4 -4l8 8" ></path><path d="M21 10l0 7l-7 0" ></path></symbol>
<symbol viewBox="0 0 24 24" fill="none" stroke="currentColor" stroke-width="2" stroke-linecap="round" stroke-linejoin="round" class="icon icon-tabler icons-tabler-outline icon-tabler-trending-up" id="trending-up"><path stroke="none" d="M0 0h24v24H0z" fill="none"></path><path d="M3 17l6 -6l4 4l8 -8" ></path><path d="M14 7l7 0l0 7" ></path></symbol>
<symbol viewBox="0 0 24 24" fill="currentColor" class="icon icon-tabler icons-tabler-filled icon-tabler-trophy" id="trophy"><path stroke="none" d="M0 0h24v24H0z" fill="none"></path><path d="M17 3a1 1 0 0 1 .993 .883l.007 .117v2.17a3 3 0 1 1 0 5.659v.171a6.002 6.002 0 0 1 -5 5.917v2.083h3a1 1 0 0 1 .117 1.993l-.117 .007h-8a1 1 0 0 1 -.117 -1.993l.117 -.007h3v-2.083a6.002 6.002 0 0 1 -4.996 -5.692l-.004 -.225v-.171a3 3 0 0 1 -3.996 -2.653l-.003 -.176l.005 -.176a3 3 0 0 1 3.995 -2.654l-.001 -2.17a1 1 0 0 1 1 -1h10zm-12 5a1 1 0 1 0 0 2a1 1 0 0 0 0 -2zm14 0a1 1 0 1 0 0 2a1 1 0 0 0 0 -2z" ></path></symbol>
<symbol viewBox="0 0 15 15" fill="none" id="update">
  <path     fill-rule="evenodd"
    clip-rule="evenodd"
    d="M1.90321 7.29677C1.90321 10.341 4.11041 12.4147 6.58893 12.8439C6.87255 12.893 7.06266 13.1627 7.01355 13.4464C6.96444 13.73 6.69471 13.9201 6.41109 13.871C3.49942 13.3668 0.86084 10.9127 0.86084 7.29677C0.860839 5.76009 1.55996 4.55245 2.37639 3.63377C2.96124 2.97568 3.63034 2.44135 4.16846 2.03202L2.53205 2.03202C2.25591 2.03202 2.03205 1.80816 2.03205 1.53202C2.03205 1.25588 2.25591 1.03202 2.53205 1.03202L5.53205 1.03202C5.80819 1.03202 6.03205 1.25588 6.03205 1.53202L6.03205 4.53202C6.03205 4.80816 5.80819 5.03202 5.53205 5.03202C5.25591 5.03202 5.03205 4.80816 5.03205 4.53202L5.03205 2.68645L5.03054 2.68759L5.03045 2.68766L5.03044 2.68767L5.03043 2.68767C4.45896 3.11868 3.76059 3.64538 3.15554 4.3262C2.44102 5.13021 1.90321 6.10154 1.90321 7.29677ZM13.0109 7.70321C13.0109 4.69115 10.8505 2.6296 8.40384 2.17029C8.12093 2.11718 7.93465 1.84479 7.98776 1.56188C8.04087 1.27898 8.31326 1.0927 8.59616 1.14581C11.4704 1.68541 14.0532 4.12605 14.0532 7.70321C14.0532 9.23988 13.3541 10.4475 12.5377 11.3662C11.9528 12.0243 11.2837 12.5586 10.7456 12.968L12.3821 12.968C12.6582 12.968 12.8821 13.1918 12.8821 13.468C12.8821 13.7441 12.6582 13.968 12.3821 13.968L9.38205 13.968C9.10591 13.968 8.88205 13.7441 8.88205 13.468L8.88205 10.468C8.88205 10.1918 9.10591 9.96796 9.38205 9.96796C9.65819 9.96796 9.88205 10.1918 9.88205 10.468L9.88205 12.3135L9.88362 12.3123C10.4551 11.8813 11.1535 11.3546 11.7585 10.6738C12.4731 9.86976 13.0109 8.89844 13.0109 7.70321Z"
    fill="currentColor"
  ></path>
</symbol>
<symbol viewBox="0 0 24 24" fill="none" stroke="currentColor" stroke-width="2" stroke-linecap="round" stroke-linejoin="round" class="icon icon-tabler icons-tabler-outline icon-tabler-upload" id="upload"><path stroke="none" d="M0 0h24v24H0z" fill="none"></path><path d="M4 17v2a2 2 0 0 0 2 2h12a2 2 0 0 0 2 -2v-2" ></path><path d="M7 9l5 -5l5 5" ></path><path d="M12 4l0 12" ></path></symbol>
<symbol viewBox="0 0 24 24" fill="none" stroke="currentColor" stroke-width="2" stroke-linecap="round" stroke-linejoin="round" class="icon icon-tabler icons-tabler-outline icon-tabler-user-dollar" id="user-dollar"><path stroke="none" d="M0 0h24v24H0z" fill="none"></path><path d="M8 7a4 4 0 1 0 8 0a4 4 0 0 0 -8 0" ></path><path d="M6 21v-2a4 4 0 0 1 4 -4h3" ></path><path d="M21 15h-2.5a1.5 1.5 0 0 0 0 3h1a1.5 1.5 0 0 1 0 3h-2.5" ></path><path d="M19 21v1m0 -8v1" ></path></symbol>
<symbol viewBox="0 0 24 24" fill="none" stroke="currentColor" stroke-width="2" stroke-linecap="round" stroke-linejoin="round" class="icon icon-tabler icons-tabler-outline icon-tabler-user-plus" id="user-plus"><path stroke="none" d="M0 0h24v24H0z" fill="none"></path><path d="M8 7a4 4 0 1 0 8 0a4 4 0 0 0 -8 0" ></path><path d="M16 19h6" ></path><path d="M19 16v6" ></path><path d="M6 21v-2a4 4 0 0 1 4 -4h4" ></path></symbol>
<symbol viewBox="0 0 24 24" fill="none" stroke="currentColor" stroke-width="2" stroke-linecap="round" stroke-linejoin="round" class="lucide lucide-user" id="user"><path d="M19 21v-2a4 4 0 0 0-4-4H9a4 4 0 0 0-4 4v2"></path><circle cx="12" cy="7" r="4"></circle></symbol>
<symbol viewBox="0 0 24 24" fill="none" stroke="currentColor" stroke-width="2" stroke-linecap="round" stroke-linejoin="round" class="lucide lucide-users" id="users"><path d="M16 21v-2a4 4 0 0 0-4-4H6a4 4 0 0 0-4 4v2"></path><circle cx="9" cy="7" r="4"></circle><path d="M22 21v-2a4 4 0 0 0-3-3.87"></path><path d="M16 3.13a4 4 0 0 1 0 7.75"></path></symbol>
<symbol viewBox="0 0 24 24" fill="none" stroke="currentColor" stroke-width="2" stroke-linecap="round" stroke-linejoin="round" class="icon icon-tabler icons-tabler-outline icon-tabler-world" id="world"><path stroke="none" d="M0 0h24v24H0z" fill="none"></path><path d="M3 12a9 9 0 1 0 18 0a9 9 0 0 0 -18 0" ></path><path d="M3.6 9h16.8" ></path><path d="M3.6 15h16.8" ></path><path d="M11.5 3a17 17 0 0 0 0 18" ></path><path d="M12.5 3a17 17 0 0 1 0 18" ></path></symbol>
</defs>
</svg>
